<?xml version="1.0" encoding="utf-8"?>
<!-- Generator: Adobe Illustrator 16.0.0, SVG Export Plug-In . SVG Version: 6.00 Build 0)  -->
<!DOCTYPE svg PUBLIC "-//W3C//DTD SVG 1.1//EN" "http://www.w3.org/Graphics/SVG/1.1/DTD/svg11.dtd">
<svg version="1.1" id="Capa_1" xmlns="http://www.w3.org/2000/svg" xmlns:xlink="http://www.w3.org/1999/xlink" x="0px" y="0px"
	 width="44.238px" height="44.238px" viewBox="0 0 44.238 44.238" enable-background="new 0 0 44.238 44.238" xml:space="preserve">
<g>
	<g>
		<path fill="#457971" d="M22.119,44.237C9.923,44.237,0,34.315,0,22.119S9.923,0.001,22.119,0.001
			c12.195,0,22.119,9.922,22.119,22.118S34.314,44.237,22.119,44.237z M22.119,1.501C10.75,1.501,1.5,10.75,1.5,22.119
			c0,11.368,9.25,20.618,20.619,20.618s20.619-9.25,20.619-20.618C42.738,10.75,33.488,1.501,22.119,1.501z"/>
		<g>
			<path fill="#457971" d="M22.119,25.329c-0.414,0-0.75-0.336-0.75-0.75V12.952c0-0.414,0.336-0.75,0.75-0.75s0.75,0.336,0.75,0.75
				v11.627C22.869,24.993,22.533,25.329,22.119,25.329z"/>
		</g>
		<g>
			<path fill="#457971" d="M31.434,30.165H12.805c-0.414,0-0.75-0.336-0.75-0.75s0.336-0.75,0.75-0.75h18.628
				c0.414,0,0.75,0.336,0.75,0.75S31.848,30.165,31.434,30.165z"/>
		</g>
		<g>
			<path fill="#457971" d="M22.119,25.329c-0.19,0-0.384-0.073-0.529-0.219l-3.334-3.326c-0.294-0.293-0.294-0.768-0.002-1.061
				c0.292-0.294,0.77-0.294,1.062-0.002l3.334,3.325c0.294,0.293,0.294,0.77,0.002,1.062C22.504,25.256,22.312,25.329,22.119,25.329
				z"/>
		</g>
		<g>
			<path fill="#457971" d="M22.119,25.329c-0.192,0-0.385-0.073-0.531-0.221c-0.292-0.293-0.292-0.77,0.002-1.062l3.334-3.325
				c0.292-0.292,0.771-0.292,1.062,0.002c0.293,0.293,0.293,0.768-0.002,1.061l-3.333,3.326
				C22.503,25.256,22.311,25.329,22.119,25.329z"/>
		</g>
	</g>
</g>
</svg>
