<?xml version="1.0" encoding="utf-8"?>
<!-- Generator: Adobe Illustrator 16.0.0, SVG Export Plug-In . SVG Version: 6.00 Build 0)  -->
<!DOCTYPE svg PUBLIC "-//W3C//DTD SVG 1.1//EN" "http://www.w3.org/Graphics/SVG/1.1/DTD/svg11.dtd">
<svg version="1.1" id="Layer_1" xmlns="http://www.w3.org/2000/svg" xmlns:xlink="http://www.w3.org/1999/xlink" x="0px" y="0px"
	 width="133.333px" height="127.667px" viewBox="0 0 133.333 127.667" enable-background="new 0 0 133.333 127.667"
	 xml:space="preserve">
<g>
	<path fill="#CECECD" d="M67.498,7.27c-1.803,0-3.265,1.46-3.265,3.263v13.394c0,1.802,1.462,3.263,3.265,3.263
		c1.802,0,3.261-1.461,3.261-3.263V10.532C70.759,8.729,69.3,7.27,67.498,7.27z"/>
	<path fill="#CECECD" d="M27.212,23.683c-1.275,1.274-1.275,3.341,0,4.615l9.47,9.471c1.275,1.274,3.341,1.274,4.615-0.001
		c1.275-1.274,1.275-3.34,0-4.614l-9.47-9.471C30.552,22.408,28.487,22.408,27.212,23.683z"/>
	<path fill="#CECECD" d="M10.332,63.774c0,1.803,1.461,3.264,3.263,3.264h13.394c1.803,0,3.263-1.461,3.262-3.264
		c0.001-1.803-1.459-3.262-3.262-3.262l-13.394-0.002C11.793,60.511,10.332,61.97,10.332,63.774z"/>
	<path fill="#CECECD" d="M26.745,104.06c1.274,1.275,3.341,1.275,4.616,0.002l9.47-9.471c1.274-1.275,1.274-3.342-0.001-4.613
		c-1.273-1.277-3.34-1.277-4.614-0.004l-9.47,9.471C25.472,100.72,25.47,102.786,26.745,104.06z"/>
	<path fill="#CECECD" d="M107.121,104.528c1.275-1.275,1.277-3.344,0.004-4.617l-9.473-9.471c-1.275-1.273-3.342-1.273-4.613,0.002
		c-1.275,1.271-1.275,3.34,0,4.613l9.469,9.473C103.781,105.8,105.847,105.8,107.121,104.528z"/>
	<path fill="#CECECD" d="M124.001,64.435c0-1.803-1.459-3.264-3.264-3.264h-13.393c-1.803,0-3.264,1.461-3.262,3.264
		c-0.002,1.803,1.459,3.264,3.262,3.264h13.393C122.542,67.698,124.001,66.239,124.001,64.435z"/>
	<path fill="#CECECD" d="M107.589,24.149c-1.273-1.274-3.342-1.275-4.615-0.001l-9.471,9.472c-1.273,1.274-1.273,3.34,0.002,4.613
		c1.271,1.275,3.34,1.275,4.611,0l9.471-9.47C108.863,27.489,108.863,25.424,107.589,24.149z"/>
	<g>
		<g>
			<g>
				<g>
					<g>
						<path fill="#CECECD" d="M67.498,33.107c-17.256,0-31.299,14.042-31.299,31.3c0,10.088,4.904,19.611,13.125,25.48l0.386,0.254
							c1.909,1.123,2.097,4.732,2.056,5.395l-0.011,0.33v10.271c0,1.961,1.095,3.748,2.843,4.646l10.527,5.373
							c0.744,0.379,1.559,0.574,2.373,0.574c0.802,0,1.611-0.189,2.351-0.559l10.652-5.379c1.758-0.887,2.863-2.686,2.863-4.658
							V95.923c0-5.148,3.146-6.85,3.172-6.861l1.158-0.744c7.057-5.973,11.1-14.68,11.1-23.91
							C98.794,47.149,84.757,33.107,67.498,33.107z M67.498,111.515l-10.521-5.379h21.171L67.498,111.515z M78.144,95.923v4.998
							H56.971v-5.055l0.006-0.162h21.187L78.144,95.923z M84.33,84.331c0,0-3.496,1.633-5.227,6.156H56.137
							c-0.648-1.805-1.769-3.662-3.783-4.852c-6.619-4.721-10.938-12.473-10.938-21.229c0-14.404,11.68-26.083,26.082-26.083
							c14.408,0,26.08,11.679,26.08,26.083C93.578,72.397,89.986,79.544,84.33,84.331z"/>
						<path fill="#CECECD" d="M70.105,43.54c-1.434,0-2.607,1.169-2.607,2.609c0,1.439,1.173,2.607,2.607,2.607
							c5.869,0,13.041,5.336,13.041,13.285c0,1.439,1.174,2.609,2.609,2.609c1.434,0,2.607-1.168,2.607-2.609
							C88.363,50.144,79.072,43.54,70.105,43.54z"/>
					</g>
				</g>
			</g>
		</g>
	</g>
</g>
</svg>
