<?xml version="1.0" encoding="utf-8"?>
<!-- Generator: Adobe Illustrator 16.0.0, SVG Export Plug-In . SVG Version: 6.00 Build 0)  -->
<!DOCTYPE svg PUBLIC "-//W3C//DTD SVG 1.1//EN" "http://www.w3.org/Graphics/SVG/1.1/DTD/svg11.dtd">
<svg version="1.1" id="Layer_1" xmlns="http://www.w3.org/2000/svg" xmlns:xlink="http://www.w3.org/1999/xlink" x="0px" y="0px"
	 width="336px" height="328px" viewBox="0 0 336 328" enable-background="new 0 0 336 328" xml:space="preserve">
<rect x="-358.5" y="83" fill-rule="evenodd" clip-rule="evenodd" fill="#F1F7F6" width="336" height="329"/>
<g>
	<g>
		<path fill="#E4EFED" d="M170,15c0.334,0,0.666,0,1,0c5.643,8.421,12.585,15.267,21.602,20.292
			c4.825,2.689,8.512,7.358,12.994,10.764c1.524,1.158,3.922,1.67,5.901,1.627c4.753-0.104,9.544-1.343,14.231-0.981
			c9.489,0.729,18.819,1.784,28.124-1.611c5.133-1.873,6.27-0.869,6.123,4.787c-0.194,7.503,1.622,14.371,4.363,21.322
			c2.348,5.951,3.103,12.513,4.959,18.686c0.508,1.686,2.22,3.272,3.771,4.328c4.083,2.78,8.797,4.759,12.508,7.936
			c7.383,6.319,14.603,12.661,24.396,14.988c3.664,0.87,4.096,2.898,1.847,5.757c-5.264,6.69-7.959,14.423-10.064,22.612
			c-1.513,5.881-4.636,11.335-6.779,17.077c-0.534,1.43-0.513,3.408,0.032,4.838c1.991,5.229,5.153,10.149,6.321,15.523
			c2.013,9.257,4.646,18.025,10.677,25.513c2.206,2.739,1.295,4.44-1.904,5.441c-8.062,2.521-15.01,6.839-21.524,12.276
			c-4.655,3.886-10.412,6.426-15.459,9.885c-1.394,0.955-2.405,2.936-2.901,4.646c-1.515,5.219-1.917,10.897-4.173,15.734
			c-3.88,8.32-6.754,16.62-6.048,25.924c0.349,4.587-1.783,4.877-5.902,4.049c-6.751-1.356-13.698-1.804-20.583-2.413
			c-7.252-0.641-14.521-1.132-21.794-1.426c-1.48-0.061-3.284,0.71-4.463,1.677c-3.807,3.122-6.979,7.22-11.145,9.661
			c-9.443,5.535-18.501,11.27-24.109,21.088c-1,0-2,0-3,0c-4.3-6.638-9.49-12.229-16.278-16.604
			c-6.233-4.018-11.672-9.249-17.633-13.716c-1.345-1.008-3.419-1.538-5.127-1.474c-5.238,0.196-10.517,1.484-15.678,1.073
			c-9.185-0.731-18.183-1.453-27.105,1.814c-5.386,1.973-6.235,1.325-6.097-4.399c0.19-7.828-1.615-15.035-4.556-22.287
			c-2.338-5.766-2.992-12.195-4.792-18.211c-0.503-1.683-2.189-3.29-3.737-4.328c-3.819-2.56-8.343-4.236-11.738-7.227
			c-7.557-6.659-15.136-13.058-25.134-15.707c-4.187-1.109-3.399-2.992-1.692-6.151c3.364-6.225,6.166-12.77,8.934-19.295
			c2.778-6.55,5.332-13.201,7.749-19.893c0.527-1.459,0.513-3.449-0.032-4.902c-2.083-5.552-5.367-10.8-6.561-16.505
			c-1.847-8.823-4.601-17.006-10.188-24.116c-2.428-3.09-1.625-4.514,1.936-6.164c6.57-3.046,12.88-6.691,19.136-10.364
			c6.264-3.678,12.37-7.634,18.442-11.623c1.018-0.668,1.886-2.031,2.193-3.233c1.418-5.564,1.908-11.474,4.052-16.719
			c3.368-8.238,6.631-16.243,6.032-25.441c-0.34-5.231,0.837-5.924,5.916-4.545c7.609,2.067,15.14,2.98,23.154,2.255
			c6.469-0.585,13.127,1.069,19.715,1.519c1.222,0.083,2.754-0.544,3.73-1.346c4.683-3.853,8.721-8.797,13.924-11.639
			C156.93,30.657,164.306,23.854,170,15z M74.322,190.745c-0.258,0.043-0.517,0.086-0.775,0.129c0.498,2.529,0.363,5.43,1.594,7.529
			c9.945,16.959,21.541,32.754,34.516,47.526c0.736,0.838,1.723,1.599,2.748,2.017c6.768,2.768,13.452,5.829,20.403,8.041
			c12.178,3.874,24.524,7.221,36.817,10.729c0.725,0.206,1.63-0.01,2.402-0.214c5.449-1.44,10.979-2.656,16.311-4.457
			c13.689-4.626,27.295-9.5,40.908-14.348c0.863-0.308,1.604-1.157,2.231-1.898c5.052-5.959,10.627-11.573,14.969-18.016
			c9.274-13.762,21.835-26.002,21.253-44.635c-0.254-8.112,0.888-16.261,0.817-24.388c-0.064-7.463-0.868-14.921-1.44-22.374
			c-0.097-1.261-0.421-2.634-1.062-3.702c-10.106-16.861-21.576-32.738-34.584-47.486c-0.734-0.832-1.729-1.56-2.746-1.999
			c-18.206-7.869-37.012-13.919-56.338-18.348c-1.09-0.25-2.34-0.345-3.404-0.074c-9.508,2.416-19.273,4.177-28.418,7.588
			c-14.484,5.403-30.228,8.915-39.63,23.354c-6.154,9.451-12.836,18.571-19.564,27.631c-5.273,7.101-8.151,14.523-7.689,23.684
			c0.55,10.899-0.38,21.866-0.427,32.806C73.199,183.474,73.931,187.11,74.322,190.745z M86.396,234.673
			c-0.852,0.135-1.703,0.27-2.555,0.404c-0.319,3.398-1.526,7.013-0.767,10.149c1.478,6.102,4.106,11.92,6.164,17.889
			c1.121,3.254,1.098,7.897,3.327,9.498c2.265,1.626,6.668,0.133,10.125,0.27c6.47,0.256,12.929,0.886,19.398,1.006
			c4.318,0.08,7.581-1.815,8.755-6.855c-5.438-2.435-10.717-4.803-15.999-7.163c-6.357-2.842-10.393,3.965-16.756,4.51
			c0.501-3.11,1.075-5.495,1.221-7.906c0.147-2.424,0.798-5.549-0.394-7.185C95.151,244.119,90.627,239.503,86.396,234.673z
			 M243.081,264.693c-2.146-0.69-3.248-0.745-3.926-1.309c-6.696-5.574-13.414-4.375-20.245-0.306
			c-1.563,0.932-3.369,1.461-4.913,2.418c-1.164,0.722-2.953,1.879-2.903,2.755c0.065,1.159,1.482,2.946,2.615,3.217
			c4.292,1.022,8.688,1.979,13.076,2.145c6.445,0.242,12.922-0.131,19.374-0.453c1.204-0.06,3.064-0.835,3.426-1.752
			c3.096-7.849,6.231-15.711,8.657-23.78c0.922-3.068,0.543-6.805-0.2-10.015c-0.655-2.83-2.928-3.424-5.171-0.877
			c-2.523,2.866-4.923,5.868-7.667,8.508c-3.45,3.317-4.802,6.991-3.475,11.688C242.342,259.098,242.523,261.386,243.081,264.693z
			 M53.831,203.901c2.69-6.233,10.8-7.406,9.774-14.816c-0.784-5.669-1.413-11.359-2.135-17.241
			c-6.854,0.897-8.576,5.698-10.146,10.408c-2.413,7.24-4.639,14.546-6.735,21.884c-0.322,1.126,0.029,3.124,0.834,3.785
			c6.648,5.458,13.338,10.89,20.332,15.888c2.255,1.611,5.438,2.568,8.224,2.634c3.574,0.085,5.111-1.946,2.83-5.563
			c-2.126-3.37-4.144-6.82-6-10.346c-1.895-3.599-4.684-5.358-8.764-5.498C59.47,204.947,56.913,204.348,53.831,203.901z
			 M254.99,96.509c4.618-3.95,4.072-8.155,2.722-12.397c-2.565-8.061-5.2-16.101-7.988-24.086c-0.322-0.922-1.769-2.009-2.742-2.058
			c-8.618-0.431-17.25-0.881-25.872-0.784c-2.772,0.03-5.832,1.19-8.213,2.699c-2.953,1.87-2.926,4.222,0.771,5.766
			c3.066,1.281,6.105,2.65,9.063,4.163c4.657,2.382,9.101,2.762,13.605-0.448c1.672-1.191,3.712-1.866,5.912-2.936
			c1.648,6.143-3.989,12.004,1.02,17.27C247.225,87.855,251.025,92.163,254.99,96.509z M170.348,288.006
			c-0.776-1.221-1.543-1.97-1.773-2.858c-2.231-8.613-8.409-11.775-16.617-12.267c-0.985-0.06-1.956-0.572-2.93-0.562
			c-2.134,0.021-4.267,0.24-6.399,0.379c0.664,2.304,1.037,4.753,2.094,6.86c0.69,1.376,2.287,2.374,3.624,3.337
			c6.735,4.854,13.473,9.708,20.34,14.37c0.936,0.635,2.97,0.746,3.88,0.153c7.211-4.688,14.449-9.373,21.279-14.584
			c2.267-1.73,3.862-4.817,4.845-7.608c0.835-2.371-0.633-4.177-3.643-3.624c-9.75,1.792-20.353,2.231-23.245,14.812
			C171.709,286.822,171.17,287.129,170.348,288.006z M262.449,224.272c5.334,2.917,9.37,1.27,13.113-1.417
			c6.745-4.842,13.406-9.805,19.988-14.865c0.811-0.623,1.515-2.312,1.267-3.238c-2.229-8.332-4.333-16.729-7.252-24.827
			c-1.057-2.933-3.934-5.471-6.519-7.504c-1.943-1.529-3.717-0.463-3.922,2.363c-0.288,3.981-0.542,7.983-1.174,11.918
			c-0.737,4.596,0.71,8.078,4.214,11.025c1.815,1.527,3.284,3.468,5.729,6.104c-3.993,0.544-6.791,0.702-9.466,1.361
			c-2.172,0.535-5.034,1.085-6.13,2.65C268.721,212.956,265.812,218.536,262.449,224.272z M53.226,127.347
			c3.868-0.587,6.848-0.713,9.608-1.557c2.401-0.734,5.259-1.739,6.672-3.579c3.018-3.927,5.236-8.469,7.77-12.766
			c1.728-2.929,0.035-4.404-2.503-4.087c-3.019,0.377-6.3,1.189-8.776,2.847c-5.646,3.776-10.498,8.851-16.378,12.133
			c-5.134,2.866-6.194,5.108-3.659,10.632c2.45,5.336,3.002,11.53,4.508,17.317c1.146,4.403,2.481,8.871,7.506,10.329
			c1.038,0.301,3.551-0.791,3.641-1.471c1.289-9.801,5.027-20.288-6.299-27.199C54.797,129.63,54.498,128.955,53.226,127.347z
			 M98.099,65.785c3.582,1.925,5.875,3.603,8.443,4.41c2.548,0.803,5.608,1.554,8.025,0.863c4.597-1.314,8.924-3.611,13.309-5.617
			c3.085-1.41,3.099-3.782,0.399-5.146c-2.856-1.441-6.226-2.447-9.407-2.55c-7.97-0.256-15.961,0.031-23.938,0.303
			c-1.207,0.041-3.079,0.893-3.452,1.838c-3.032,7.701-6.097,15.421-8.459,23.341c-0.935,3.137-0.618,6.901,0.062,10.187
			c0.559,2.702,2.671,3.755,5.066,1.004c2.729-3.135,5.483-6.262,8.422-9.197c3.176-3.171,3.868-6.739,2.771-10.974
			C98.747,71.943,98.626,69.518,98.099,65.785z M279.469,159.266c6.104-1.65,7.849-3.094,9.586-8.228
			c2.712-8.015,5.303-16.074,7.72-24.182c0.318-1.065-0.284-3.018-1.145-3.724c-6.535-5.354-13.034-10.802-19.999-15.553
			c-2.59-1.768-6.373-2.253-9.652-2.398c-2.858-0.126-3.514,1.981-1.997,4.512c2.051,3.425,4.214,6.8,6.016,10.354
			c1.921,3.791,4.68,5.782,8.999,5.975c2.694,0.119,5.36,0.881,8.507,1.438c-3.098,5.555-10.189,7.343-9.662,14.147
			C278.286,147.35,278.892,153.08,279.469,159.266z M170.068,43.161c0.529-0.176,1.059-0.351,1.587-0.525
			c1.856,11.861,9.855,15.502,19.983,16.103c2.255,0.133,4.548-0.377,6.822-0.591c-0.834-2.426-1.393-5.003-2.607-7.22
			c-0.735-1.345-2.442-2.195-3.791-3.158c-6.353-4.541-12.69-9.106-19.148-13.495c-0.984-0.669-2.973-1.09-3.812-0.554
			c-7.687,4.913-15.328,9.918-22.729,15.247c-1.839,1.325-3.317,3.759-3.972,5.976c-0.934,3.158,0.344,5.225,4.231,4.396
			c3.417-0.728,6.851-1.436,10.312-1.884c5.35-0.692,8.847-3.29,10.343-8.638C167.844,46.829,169.121,45.041,170.068,43.161z"/>
		<path fill-rule="evenodd" clip-rule="evenodd" fill="#E4EFED" d="M109.367,127.5c41.342,0,80.826,0,121.987,0
			c-20.42,36.067-40.276,71.141-60.134,106.213c-0.59-0.056-1.182-0.111-1.772-0.167C149.677,198.648,129.905,163.75,109.367,127.5z
			 M132.801,141.599c12.811,22.576,24.924,43.922,37.615,66.284c12.841-22.719,24.89-44.037,37.464-66.284
			C182.438,141.599,158.35,141.599,132.801,141.599z"/>
		<path fill-rule="evenodd" clip-rule="evenodd" fill="#E4EFED" d="M90.321,127.936c1.558,2.285,2.628,3.665,3.499,5.161
			c9.205,15.819,18.266,31.725,27.638,47.444c2.33,3.909,1.962,6.088-2.072,8.26c-8.349,4.496-16.468,9.419-24.831,13.887
			c-1.23,0.657-4.395,0.325-4.78-0.466c-5.609-11.52-6.674-23.979-7.781-36.407c0.521-0.204,1.041-0.408,1.562-0.613
			c2.923,5.087,5.876,10.156,8.761,15.265c3.18,5.631,7.421,6.16,11.397,1.027c0.712-0.919,0.192-3.401-0.541-4.73
			c-4.984-9.032-9.92-18.109-15.401-26.84c-3.183-5.07-3.711-9.679-0.72-14.828C88.184,133.146,88.948,130.982,90.321,127.936z"/>
		<path fill-rule="evenodd" clip-rule="evenodd" fill="#E4EFED" d="M248.963,128.894c6.125,7.41,6.898,13.592,2.618,21.12
			c-4.94,8.689-9.785,17.443-15.048,25.936c-2.721,4.392-0.511,5.936,2.867,8.037c3.806,2.366,5.543,1.054,7.344-2.395
			c2.916-5.585,6.194-10.981,10.321-16.329c0,2.636,0.425,5.355-0.076,7.893c-1.802,9.124-3.836,18.204-5.953,27.261
			c-0.821,3.512-2.685,4.463-6.186,2.352c-8.271-4.989-16.731-9.668-25.155-14.399c-2.711-1.522-4.094-3.206-2.245-6.378
			c10.064-17.273,20.053-34.591,30.099-51.875C247.845,129.606,248.482,129.297,248.963,128.894z"/>
		<path fill-rule="evenodd" clip-rule="evenodd" fill="#E4EFED" d="M212.131,240.989c3.119-5.272,5.963-10.735,9.441-15.759
			c2.984-4.311,1.196-6.144-2.471-8.556c-4.253-2.798-5.775-0.573-7.611,2.667c-4.598,8.115-9.735,15.949-13.904,24.272
			c-2.716,5.422-6.476,8.083-12.292,8.524c-2.433,0.184-4.836,0.737-8.164,1.268c0.722-1.947,0.989-3.164,1.581-4.195
			c9.445-16.473,18.969-32.899,28.376-49.394c1.784-3.129,3.572-3.698,6.792-1.758c8.271,4.985,16.73,9.659,25.13,14.432
			c2.178,1.238,4.209,2.467,2.136,5.362c-7.398,10.331-17.626,17.295-27.813,24.307C212.931,241.77,212.531,241.38,212.131,240.989z
			"/>
		<path fill-rule="evenodd" clip-rule="evenodd" fill="#E4EFED" d="M162.646,253.179c-9.35-0.905-17.371-1.569-21.649-11.229
			c-3.62-8.174-8.92-15.59-13.247-23.468c-1.701-3.097-3.398-4.312-6.584-2.018c-2.649,1.907-6.929,2.643-3.651,7.648
			c3.613,5.518,6.715,11.37,9.271,17.968c-1.588-0.986-3.343-1.78-4.737-2.99c-7.508-6.518-15-13.059-22.339-19.766
			c-2.797-2.557-2.69-4.847,1.119-6.912c8.486-4.602,16.784-9.549,25.135-14.397c2.404-1.395,4.361-2.115,6.172,1.054
			c9.749,17.055,19.634,34.031,29.447,51.05C161.974,250.796,162.114,251.618,162.646,253.179z"/>
		<path fill-rule="evenodd" clip-rule="evenodd" fill="#E4EFED" d="M242.657,115.72c-2.868,0.171-4.48,0.349-6.092,0.351
			c-17.806,0.021-35.611,0.027-53.417,0.004c-6.788-0.009-7.191-0.401-7.217-6.955c-0.032-8.819-0.025-17.639,0.021-26.458
			c0.013-2.332-0.139-5.14,3.378-4.854c12.455,1.012,23.577,5.838,34.329,11.642c-0.062,0.553-0.124,1.105-0.186,1.658
			c-5.697,0-11.395-0.036-17.092,0.01c-5.785,0.046-6.493,0.987-6.42,6.737c0.047,3.681,1.676,4.988,5.199,4.951
			c9.317-0.099,18.668,0.439,27.946-0.174c6.861-0.454,11.472,2.079,15.104,7.459C239.304,111.709,240.631,113.171,242.657,115.72z"
			/>
		<path fill-rule="evenodd" clip-rule="evenodd" fill="#E4EFED" d="M124.328,89.36c10.738-5.464,21.674-10.465,33.972-11.419
			c1.143-0.089,3.512,2.148,3.544,3.354c0.278,10.31,0.28,20.634-0.026,30.942c-0.038,1.289-2.336,3.587-3.607,3.601
			c-19.133,0.212-38.271,0.125-57.406,0.067c-0.591-0.002-1.181-0.444-1.745-0.671c1.908-7.712,7.642-12.434,14.962-12.446
			c9.486-0.016,18.979-0.214,28.457,0.064c5.589,0.164,5.355-3.206,5.655-7.116c0.356-4.654-2.303-4.699-5.581-4.653
			c-5.947,0.083-11.896,0.023-17.845,0.023C124.581,90.524,124.455,89.942,124.328,89.36z"/>
	</g>
</g>
<rect x="-75.5" y="15" fill-rule="evenodd" clip-rule="evenodd" fill="#F1F7F6" width="49" height="49"/>
</svg>
