<?xml version="1.0" encoding="utf-8"?>
<!-- Generator: Adobe Illustrator 16.0.0, SVG Export Plug-In . SVG Version: 6.00 Build 0)  -->
<!DOCTYPE svg PUBLIC "-//W3C//DTD SVG 1.1//EN" "http://www.w3.org/Graphics/SVG/1.1/DTD/svg11.dtd">
<svg version="1.1" id="Layer_1" xmlns="http://www.w3.org/2000/svg" xmlns:xlink="http://www.w3.org/1999/xlink" x="0px" y="0px"
	 width="558px" height="56.5px" viewBox="0 0 558 56.5" enable-background="new 0 0 558 56.5" xml:space="preserve">
<g>
	<g>
		<g>
			<path fill="#EDD54A" d="M537.787,46.361c-2.375-0.159-4.752-0.318-7.105-0.477c-5.425-0.352-10.829-0.719-16.248-0.998
				c-2.709-0.134-5.419-0.267-8.133-0.4c-2.701-0.148-5.406-0.298-8.115-0.446c-10.795-0.521-21.661-1.046-32.676-1.577
				c-21.956-1.032-44.525-1.791-68.265-3.514c-8.311-0.771-16.921-1.372-25.685-1.858c-4.36-0.247-8.746-0.469-13.159-0.666
				c-2.205-0.094-4.416-0.188-6.628-0.282c-2.205-0.081-4.333-0.086-6.505-0.128c-4.323-0.048-8.641-0.191-12.961,0.027
				c-2.157,0.07-4.311,0.14-6.456,0.21c-2.153,0.079-4.262,0.115-6.456,0.26c-8.704,0.47-17.26,0.932-25.521,1.378
				c9.785-0.278,19.633-0.558,29.52-0.839c4.837-0.021,9.687-0.146,14.53-0.102c4.856,0.166,9.631,0.256,14.565,0.474
				c20.002,1.026,40.081,2.058,60.066,3.083c19.999,1.007,39.925,2.106,59.524,3.619c9.769,0.779,19.644,1.461,29.356,2.317
				c4.852,0.454,9.754,0.742,14.597,1.16c4.855,0.416,9.688,0.83,14.494,1.241c-7.761,2.243-17.113,4.022-27.93,3.886
				c-12.882-0.713-25.677-1.422-38.402-2.127c-12.642-0.71-25.257-1.293-37.798-1.862c0.028-0.971,0.085-2.867,0.114-3.821
				c-8.927,0.104-17.763,0.095-26.562-0.126c-8.802-0.231-17.545-0.581-26.247-1.005c-4.316-0.232-8.624-0.465-12.925-0.696
				l-6.432-0.382l-3.212-0.197l-3.107-0.139c-4.119-0.15-8.229-0.402-12.356-0.495l-12.413-0.037
				c-2.038-0.031-4.241,0.066-6.356,0.098l-6.408,0.146c-4.275,0.112-8.553,0.226-12.834,0.339
				c-8.627,0.283-17.269,0.627-25.943,1.078c-17.35,0.924-34.816,2.155-52.544,4.248c2.556,0.389,1.095,1.246,0.602,1.894
				c-0.175,0.011-0.342,0.021-0.504,0.029c0.162-0.009,0.33-0.019,0.504-0.029c-0.446,0.568-0.133,0.977,4.293,0.759
				c-4.426,0.218-4.739-0.19-4.293-0.759c17.49-1.111,34.694-2.027,51.772-2.951c8.54-0.428,17.043-0.853,25.528-1.277
				c8.422-0.371,16.824-0.727,25.185-1.027l12.143-0.175c2.027-0.064,4.04,0.013,6.055,0.077l6.044,0.185
				c3.951,0.08,8.259,0.354,12.46,0.572c4.222,0.231,8.45,0.464,12.687,0.697c17.108,0.947,34.355,1.901,51.884,2.871
				c-6.798-0.286-13.58-0.572-20.35-0.858c-6.784-0.31-13.555-0.617-20.316-0.926c-6.73-0.288-13.451-0.575-20.165-0.863
				c-3.333-0.138-6.665-0.276-9.995-0.414l-2.482-0.094l-2.386-0.043l-4.771-0.087c-6.345-0.239-12.751,0.085-19.132,0.214
				l-2.406,0.068l-2.486,0.121l-4.974,0.245l-9.945,0.497c-13.37,0.732-26.741,1.465-40.134,2.198
				c-13.406,0.735-26.833,1.473-40.303,2.211c-6.734,0.371-13.479,0.743-20.236,1.115l-5.08,0.275l-5.167,0.247
				c-3.446,0.163-6.896,0.326-10.35,0.49c-3.454,0.162-6.912,0.324-10.375,0.487c-3.468,0.139-6.969,0.156-10.459,0.238
				c-3.495,0.065-6.993,0.131-10.497,0.196c-3.504,0.047-7.013,0.181-10.528,0.097c-7.03-0.082-14.081-0.166-21.155-0.249
				l-2.653-0.037l-2.634-0.105l-5.275-0.214c-3.52-0.146-7.045-0.292-10.577-0.438c-4.689-0.188-14.087-0.563-18.783-0.751
				c-9.147-1.748-18.164-2.815-26.983-3.048c-4.394-0.095-8.767-0.038-12.986,0.325c-2.143,0.131-4.184,0.43-6.268,0.672
				c-2.01,0.343-4.075,0.628-5.994,1.093c0.72-1.391,0.184-2.812-0.591-4.229c-0.768-1.418-1.778-2.829-1.816-4.237
				c-0.018-0.705,0.212-1.409,0.853-2.117c0.321-0.353,0.742-0.713,1.292-1.062c0.556-0.332,1.236-0.661,2.061-0.986
				c3.284-1.307,8.962-2.479,18.255-2.561c-0.06-0.959-0.18-2.882-0.24-3.842c-9.492-0.647-17.645-1.191-24.203-1.825
				c-3.279-0.36-6.144-0.618-8.542-1.106c-2.388-0.38-4.308-0.935-5.628-1.674c-1.212-0.751-1.861-1.694-1.885-2.813
				c0.003-0.562,0.101-1.157,0.477-1.815c0.4-0.663,1.004-1.375,1.829-2.136c3.281-3.076,10.201-6.708,20.779-9.152
				c11.924-2.69,24.548-3.625,37.406-3.765c6.429-0.062,12.911,0.096,19.381,0.356c3.206,0.144,6.439,0.289,9.697,0.436
				c3.167,0.158,6.357,0.317,9.566,0.477c3.208,0.167,6.435,0.336,9.676,0.505l2.433,0.128l2.42,0.062
				c1.615,0.04,3.232,0.079,4.852,0.119c6.479,0.143,12.997,0.335,19.515,0.385c6.518-0.082,13.036-0.199,19.515-0.377
				c1.62-0.049,3.237-0.097,4.851-0.146c1.622-0.1,3.241-0.2,4.856-0.3c3.231-0.214,6.448-0.447,9.645-0.702l13.983-0.952
				l14.214-1.021c9.478-0.663,18.956-1.28,28.439-1.807c18.98-1.027,37.912-1.824,56.955-1.827
				c6.607,0.039,13.282,0.015,20.01-0.055l2.533-0.024l2.629,0.02c1.754,0.01,3.511,0.021,5.271,0.031
				c1.759,0.006,3.52,0.013,5.284,0.02c1.763-0.003,3.528-0.001,5.309,0.098c3.551,0.14,7.111,0.281,10.679,0.422l2.663,0.108
				l2.562,0.153l5.133,0.303c6.818,0.392,13.655,0.786,20.492,1.179c27.138,1.644,54.415,2.953,80.428,5.651
				c9.483,0.767,22.576,0.701,34.316,0.68c11.808,0.097,22.295,0.036,26.993,1.543c6.733,1.428,7.019,3.479,5.988,5.759
				c-7.742-0.127-15.479-0.254-23.205-0.381c-7.748-0.232-15.486-0.464-23.211-0.696c-15.514-0.601-30.973-1.199-46.346-1.794
				l-28.26-1.618c-9.412-0.587-18.809-1.251-28.209-1.908l-28.38-2.095c-4.874-0.259-9.762-0.587-14.646-0.808l-14.638-0.299
				c4.773,0.179,9.562,0.358,14.364,0.538c4.804,0.262,9.626,0.655,14.446,0.947c4.701,0.377,9.414,0.754,14.141,1.133
				c4.696,0.347,9.405,0.696,14.126,1.045c9.41,0.647,18.866,1.258,28.377,1.772c9.519,0.473,19.08,0.898,28.678,1.294
				c15.329,0.874,30.664,1.748,45.999,2.621l22.918,1.185l22.877,0.904c-1.111,1.958-2.19,4-0.318,5.914c0,0,0.592,0.003,1.555,0.01
				c0.963,0.018,2.294-0.002,3.773-0.032c2.959-0.05,6.51-0.11,8.878-0.15c19.049,4.492,14.659,11.307,5.106,16.284
				C543.608,44.06,540.864,45.209,537.787,46.361z"/>
		</g>
	</g>
</g>
<g>
	
		<text transform="matrix(1 -0.0045 0.0045 1 40.6406 40.6094)" fill="#43332B" font-family="'TradeGothicNo.18-CondObl'" font-size="28.5728">&quot;Life is in their hands, death is on their minds&quot;</text>
</g>
</svg>
