<?xml version="1.0" encoding="utf-8"?>
<!-- Generator: Adobe Illustrator 16.0.0, SVG Export Plug-In . SVG Version: 6.00 Build 0)  -->
<!DOCTYPE svg PUBLIC "-//W3C//DTD SVG 1.1//EN" "http://www.w3.org/Graphics/SVG/1.1/DTD/svg11.dtd">
<svg version="1.1" id="Capa_1" xmlns="http://www.w3.org/2000/svg" xmlns:xlink="http://www.w3.org/1999/xlink" x="0px" y="0px"
	 width="512px" height="512px" viewBox="0 0 512 512" enable-background="new 0 0 512 512" xml:space="preserve">
<rect x="-6.5" y="-6.5" display="none" fill="#2A3993" width="526" height="528"/>
<path fill="#FFFFFF" d="M256.93,191.83c-43.77,0-79.16,35.58-79.16,79.16c0,43.59,35.58,79.17,79.16,79.17
	c43.59,0,79.16-35.58,79.16-79.17C336.09,227.41,300.52,191.83,256.93,191.83z M256.93,327.8c-31.29,0-56.81-25.51-56.81-56.81
	c0-31.29,25.52-56.81,56.81-56.81c31.29,0,56.811,25.52,56.811,56.81C313.74,302.29,288.22,327.8,256.93,327.8z"/>
<path fill="#FFFFFF" d="M-0.5-2.5v518h516v-518H-0.5z M380.05,380.89h-248.1c-12.67,0-23.1-10.8-23.1-23.47V210.46
	c0-12.67,10.43-23.1,23.1-23.1h38.93c3.72,0,7.08-2.05,9.12-5.03l35.21-51.03h79.91l33.899,50.66c2.04,2.98,5.58,5.03,9.12,5.03
	l41.73,0.37c12.66,0,23.09,10.43,23.09,23.1v146.96h0.19C403.15,370.09,392.72,380.89,380.05,380.89z"/>
<path fill="#FFFFFF" d="M380.05,165.01l-35.58-0.19l-34.08-50.85c-2.05-3.16-5.59-5.21-9.31-5.21h-91.83
	c-3.73,0-7.08,2.05-9.13,5.03l-35.2,51.03l-32.97,0.19c-24.96,0-45.45,20.49-45.45,45.45v146.96c0,24.96,20.49,45.82,45.45,45.82
	h248.1c24.96,0,45.45-20.86,45.45-45.82V210.46C425.5,185.5,405.01,165.01,380.05,165.01z M380.05,380.89h-248.1
	c-12.67,0-23.1-10.8-23.1-23.47V210.46c0-12.67,10.43-23.1,23.1-23.1h38.93c3.72,0,7.08-2.05,9.12-5.03l35.21-51.03h79.91
	l33.899,50.66c2.04,2.98,5.58,5.03,9.12,5.03l41.73,0.37c12.66,0,23.09,10.43,23.09,23.1v146.96h0.19
	C403.15,370.09,392.72,380.89,380.05,380.89z"/>
<path fill="#FFFFFF" d="M256.93,191.83c-43.77,0-79.16,35.58-79.16,79.16c0,43.59,35.58,79.17,79.16,79.17
	c43.59,0,79.16-35.58,79.16-79.17C336.09,227.41,300.52,191.83,256.93,191.83z M256.93,327.8c-31.29,0-56.81-25.51-56.81-56.81
	c0-31.29,25.52-56.81,56.81-56.81c31.29,0,56.811,25.52,56.811,56.81C313.74,302.29,288.22,327.8,256.93,327.8z"/>
</svg>
