<?xml version="1.0" encoding="utf-8"?>
<!-- Generator: Adobe Illustrator 16.0.0, SVG Export Plug-In . SVG Version: 6.00 Build 0)  -->
<!DOCTYPE svg PUBLIC "-//W3C//DTD SVG 1.1//EN" "http://www.w3.org/Graphics/SVG/1.1/DTD/svg11.dtd">
<svg version="1.1" xmlns="http://www.w3.org/2000/svg" xmlns:xlink="http://www.w3.org/1999/xlink" x="0px" y="0px"
	 width="83.669px" height="29.033px" viewBox="0 0 83.669 29.033" enable-background="new 0 0 83.669 29.033" xml:space="preserve">
<g id="Layer_1" display="none">
	<g display="inline">
		<g>
			<g>
				<path fill="#FFFFFF" d="M115.149,41.416l-1.268,1.191c-0.291,0.16-0.582,0.35-0.873,0.48c-0.878,0.398-1.771,0.498-2.563,0.498
					c-0.847,0-2.17-0.055-3.521-1.031c-1.879-1.322-2.697-3.594-2.697-5.576c0-4.102,3.34-6.113,6.062-6.113
					c0.952,0,1.929,0.24,2.724,0.742c1.322,0.873,1.664,2.01,1.854,2.617l-6.219,2.514l-2.038,0.158
					c0.66,3.361,2.936,5.316,5.449,5.316c1.256,0,2.188-0.408,3.043-0.832C115.101,41.382,115.272,41.292,115.149,41.416z
					 M111.397,34.726c0.505-0.184,0.768-0.342,0.768-0.711c0-1.057-1.195-2.275-2.621-2.275c-1.057,0-3.041,0.822-3.041,3.682
					c0,0.443,0.053,0.92,0.08,1.396L111.397,34.726z"/>
				<path fill="#FFFFFF" d="M102.147,41.208c0,1.027,0.184,1.188,1.053,1.27c0.453,0.053,0.905,0.076,1.354,0.131l-0.979,0.582
					h-4.66c0.611-0.793,0.715-0.871,0.715-1.398v-0.594l-0.01-15.724h-2.059l1.979-0.955h3.782
					c-0.819,0.475-1.065,0.763-1.171,1.688L102.147,41.208z"/>
				<path fill="#FFFFFF" d="M94.919,32.164c0.606,0.5,1.874,1.559,1.874,3.568c0,1.957-1.104,2.881-2.218,3.756
					c-0.342,0.346-0.741,0.719-0.741,1.297c0,0.584,0.399,0.9,0.688,1.139l0.957,0.736c1.158,0.98,2.22,1.881,2.22,3.705
					c0,2.488-2.407,4.996-6.958,4.996c-3.834,0-5.688-1.822-5.688-3.779c0-0.953,0.475-2.303,2.038-3.229
					c1.642-1.002,3.862-1.137,5.054-1.213c-0.372-0.48-0.797-0.984-0.797-1.803c0-0.449,0.137-0.717,0.266-1.031
					c-0.289,0.027-0.58,0.057-0.846,0.057c-2.807,0-4.395-2.096-4.395-4.154c0-1.219,0.557-2.566,1.695-3.545
					c1.508-1.242,3.307-1.457,4.732-1.457h5.451l-1.691,0.957H94.919L94.919,32.164z M93.044,43.908
					c-0.217-0.027-0.348-0.027-0.607-0.027c-0.239,0-1.668,0.053-2.775,0.424c-0.584,0.215-2.277,0.846-2.277,2.725
					c0,1.875,1.827,3.23,4.653,3.23c2.54,0,3.889-1.219,3.889-2.857C95.924,46.05,95.052,45.337,93.044,43.908z M93.804,38.88
					c0.613-0.611,0.665-1.453,0.665-1.934c0-1.9-1.134-4.863-3.333-4.863c-0.686,0-1.429,0.344-1.852,0.875
					c-0.445,0.553-0.579,1.268-0.579,1.953c0,1.771,1.032,4.711,3.304,4.711C92.673,39.623,93.386,39.298,93.804,38.88z"/>
				<path fill="#FFFFFF" d="M78.519,43.533c-4.205,0-6.453-3.273-6.453-6.236c0-3.465,2.828-6.43,6.85-6.43
					c3.889,0,6.324,3.045,6.324,6.24C85.239,40.228,82.832,43.533,78.519,43.533z M81.827,41.392
					c0.641-0.846,0.794-1.902,0.794-2.932c0-2.33-1.11-6.773-4.392-6.773c-0.871,0-1.75,0.342-2.383,0.898
					c-1.035,0.926-1.218,2.088-1.218,3.229c0,2.613,1.292,6.924,4.499,6.924C80.162,42.738,81.218,42.238,81.827,41.392z"/>
				<path fill="#FFFFFF" d="M64.44,43.533c-4.205,0-6.45-3.273-6.45-6.236c0-3.465,2.83-6.43,6.851-6.43
					c3.887,0,6.318,3.045,6.318,6.24C71.159,40.228,68.757,43.533,64.44,43.533z M67.75,41.392c0.634-0.846,0.793-1.902,0.793-2.932
					c0-2.33-1.112-6.773-4.391-6.773c-0.875,0-1.745,0.342-2.38,0.898c-1.035,0.926-1.217,2.088-1.217,3.229
					c0,2.613,1.295,6.924,4.496,6.924C66.086,42.738,67.14,42.238,67.75,41.392z"/>
				<path fill="#FFFFFF" d="M56.31,42.615l-3.547,0.812c-1.437,0.229-2.727,0.428-4.093,0.428c-6.84,0-9.446-5.035-9.446-8.977
					c0-4.812,3.692-9.273,10.017-9.273c1.337,0,2.625,0.195,3.798,0.515c1.857,0.522,2.729,1.167,3.271,1.544l-2.062,1.959
					l-0.869,0.191l0.619-0.986c-0.838-0.818-2.38-2.332-5.306-2.332c-3.913,0-6.864,2.973-6.864,7.316
					c0,4.662,3.371,9.049,8.774,9.049c1.588,0,2.406-0.318,3.146-0.615v-3.998l-3.744,0.199l1.985-1.064h5.254l-0.644,0.619
					c-0.174,0.146-0.195,0.195-0.244,0.396c-0.026,0.227-0.051,0.943-0.051,1.195v3.021H56.31L56.31,42.615z"/>
			</g>
			<g>
				<path fill="#FFFFFF" d="M122.774,41.527v6.738h-1.338V31.121h1.338v1.951c0.871-1.262,2.464-2.262,4.312-2.262
					c3.317,0,5.555,2.518,5.555,6.5c0,3.959-2.235,6.527-5.555,6.527C125.342,43.839,123.778,42.939,122.774,41.527z
					 M131.204,37.312c0-3.002-1.565-5.293-4.342-5.293c-1.725,0-3.371,1.355-4.088,2.535v5.488c0.717,1.184,2.363,2.588,4.088,2.588
					C129.639,42.63,131.204,40.32,131.204,37.312z"/>
				<path fill="#FFFFFF" d="M134.468,43.531V26.389h1.341v17.142H134.468z"/>
				<path fill="#FFFFFF" d="M150.82,47.156c0.285,0.129,0.772,0.207,1.083,0.207c0.816,0,1.389-0.336,1.898-1.518l0.979-2.211
					l-5.271-12.514h1.492l4.522,10.846l4.478-10.846h1.514l-6.43,15.139c-0.666,1.561-1.716,2.311-3.158,2.311
					c-0.433,0-1.002-0.078-1.337-0.18L150.82,47.156z"/>
				<path fill="#FFFFFF" d="M146.911,43.494c-0.09-0.432-0.156-0.811-0.205-1.127c-0.041-0.314-0.062-0.641-0.062-0.969
					c-0.459,0.674-1.109,1.234-1.938,1.676c-0.831,0.443-1.62,0.662-2.704,0.662c-1.303,0-2.312-0.318-3.037-0.971
					c-0.72-0.65-1.082-1.531-1.082-2.645s0.525-2.018,1.57-2.705c1.046-0.695,2.397-1.037,4.07-1.037h3.121v-1.545
					c0-0.891-0.305-1.586-0.908-2.094c-0.606-0.508-1.458-0.762-2.562-0.762c-1.01,0-1.828,0.232-2.449,0.689
					c-0.617,0.465-0.93,1.041-0.93,1.736h-1.37l-0.025-0.066c-0.05-0.938,0.378-1.76,1.291-2.469
					c0.904-0.711,2.097-1.066,3.561-1.066c1.456,0,2.638,0.352,3.528,1.051c0.889,0.693,1.334,1.697,1.334,3.008v6.123
					c0,0.439,0.021,0.863,0.076,1.277c0.058,0.416,0.146,0.828,0.268,1.229L146.911,43.494L146.911,43.494z M142.163,42.519
					c1.137,0,1.953-0.254,2.789-0.756c0.828-0.5,1.394-1.15,1.689-1.939v-2.383h-3.137c-1.197,0-2.188,0.266-2.97,0.799
					c-0.781,0.533-1.179,1.18-1.179,1.932c0,0.707,0.252,1.271,0.75,1.701C140.608,42.304,141.292,42.519,142.163,42.519z"/>
			</g>
		</g>
		<g>
			<g>
				<path fill="#FFFFFF" d="M39.279,12.324c0-2.635,1.958-4.329,4.392-4.329c1.631,0,2.698,0.778,3.362,1.731l-1.19,0.689
					c-0.453-0.626-1.244-1.115-2.172-1.115c-1.656,0-2.886,1.254-2.886,3.022c0,1.745,1.229,3.024,2.886,3.024
					c0.854,0,1.605-0.39,1.982-0.752v-1.293h-2.51V12.01h3.965v3.125c-0.815,0.916-1.995,1.531-3.438,1.531
					C41.237,16.666,39.279,14.947,39.279,12.324z"/>
				<path fill="#FFFFFF" d="M48.925,16.503v-8.37h5.734v1.293h-4.266v2.157h4.178v1.292h-4.178v2.334h4.266v1.293L48.925,16.503
					L48.925,16.503z"/>
				<path fill="#FFFFFF" d="M58.722,16.503V9.426h-2.535V8.135h6.537v1.291h-2.535v7.077H58.722z"/>
				<path fill="#FFFFFF" d="M67.825,16.503v-8.37h1.468v8.37H67.825z"/>
				<path fill="#FFFFFF" d="M73.38,16.503V9.426h-2.533V8.135h6.535v1.291h-2.533v7.077H73.38z"/>
				<path fill="#FFFFFF" d="M82.121,12.324c0-2.497,1.769-4.329,4.279-4.329c2.496,0,4.276,1.832,4.276,4.329
					s-1.78,4.329-4.276,4.329C83.89,16.653,82.121,14.821,82.121,12.324z M89.173,12.324c0-1.73-1.092-3.023-2.771-3.023
					c-1.694,0-2.773,1.293-2.773,3.023c0,1.72,1.079,3.023,2.773,3.023C88.081,15.348,89.173,14.044,89.173,12.324z"/>
				<path fill="#FFFFFF" d="M98.227,16.503l-4.366-5.985v5.985h-1.467v-8.37h1.506l4.275,5.797V8.133h1.471v8.37H98.227z"/>
			</g>
		</g>
		<g>
			<polygon fill="none" points="21.751,36.615 26.044,32.322 26.043,32.322 21.751,36.615 8.052,22.915 8.052,22.915 21.751,36.617 
				8.029,50.337 8.029,50.337 21.751,36.617 26.063,40.927 26.065,40.927 			"/>
			
				<linearGradient id="SVGID_1_" gradientUnits="userSpaceOnUse" x1="449.7246" y1="-497.0386" x2="431.6355" y2="-508.3595" gradientTransform="matrix(0.7071 0.7071 -0.7071 0.7071 -650.5928 68.9685)">
				<stop  offset="0" style="stop-color:#D7E69D"/>
				<stop  offset="0.4456" style="stop-color:#94C4AA"/>
				<stop  offset="1" style="stop-color:#01A4B6"/>
			</linearGradient>
			<path fill="url(#SVGID_1_)" d="M26.043,32.322L9.317,23.126c-0.473-0.259-0.912-0.319-1.266-0.21l13.7,13.699L26.043,32.322z"/>
			
				<linearGradient id="SVGID_2_" gradientUnits="userSpaceOnUse" x1="439.207" y1="-506.7095" x2="462.6608" y2="-500.5784" gradientTransform="matrix(0.7071 0.7071 -0.7071 0.7071 -650.5928 68.9685)">
				<stop  offset="0" style="stop-color:#ED277B"/>
				<stop  offset="0.0192" style="stop-color:#EE2F7C"/>
				<stop  offset="0.7039" style="stop-color:#F7BD81"/>
				<stop  offset="1" style="stop-color:#FEEB74"/>
			</linearGradient>
			<path fill="url(#SVGID_2_)" d="M26.065,40.927l5.709-3.141c1.158-0.641,1.158-1.68,0-2.314l-5.73-3.15l-4.292,4.293
				L26.065,40.927z"/>
			
				<linearGradient id="SVGID_3_" gradientUnits="userSpaceOnUse" x1="452.2998" y1="-488.4531" x2="426.8689" y2="-503.4152" gradientTransform="matrix(0.7071 0.7071 -0.7071 0.7071 -650.5928 68.9685)">
				<stop  offset="0" style="stop-color:#89CFBD"/>
				<stop  offset="0.0907" style="stop-color:#7DBEBB"/>
				<stop  offset="0.5396" style="stop-color:#457CAC"/>
				<stop  offset="0.8523" style="stop-color:#1C5AA2"/>
				<stop  offset="1" style="stop-color:#084D9F"/>
			</linearGradient>
			<path fill="url(#SVGID_3_)" d="M8.052,22.915c-0.509,0.159-0.839,0.675-0.839,1.454L7.216,48.89c0,0.77,0.32,1.277,0.813,1.447
				l13.723-13.725L8.052,22.915z"/>
			
				<linearGradient id="SVGID_4_" gradientUnits="userSpaceOnUse" x1="461.5332" y1="-500.334" x2="445.8739" y2="-479.7036" gradientTransform="matrix(0.7071 0.7071 -0.7071 0.7071 -650.5928 68.9685)">
				<stop  offset="0" style="stop-color:#F04A2B"/>
				<stop  offset="0.4704" style="stop-color:#B54F6B"/>
				<stop  offset="0.8353" style="stop-color:#8B5191"/>
				<stop  offset="1" style="stop-color:#7851A1"/>
			</linearGradient>
			<path fill="url(#SVGID_4_)" d="M8.029,50.337c0.356,0.121,0.804,0.062,1.288-0.201l16.746-9.209l-4.312-4.312L8.029,50.337z"/>
		</g>
	</g>
	<g display="inline">
		<g>
			<g>
				<path fill="#FFFFFF" d="M31.737,27.85c-0.04-4.49,3.677-6.675,3.847-6.776c-2.105-3.07-5.368-3.489-6.515-3.522
					c-2.74-0.289-5.399,1.64-6.795,1.64c-1.424,0-3.573-1.612-5.89-1.564c-2.981,0.046-5.771,1.772-7.3,4.453
					c-3.157,5.465-0.803,13.499,2.221,17.917c1.513,2.165,3.281,4.58,5.595,4.494c2.264-0.093,3.11-1.442,5.842-1.442
					c2.708,0,3.501,1.442,5.861,1.388c2.43-0.038,3.96-2.173,5.42-4.355c1.748-2.48,2.45-4.924,2.478-5.049
					C36.444,35.013,31.783,33.234,31.737,27.85z"/>
				<path fill="#FFFFFF" d="M27.279,14.646c1.217-1.523,2.05-3.595,1.819-5.698c-1.762,0.078-3.965,1.219-5.235,2.709
					c-1.123,1.312-2.126,3.463-1.867,5.486C23.976,17.292,26.008,16.145,27.279,14.646z"/>
			</g>
		</g>
		<g>
			<path fill="#FFFFFF" d="M64.5,44.18h-3.164l-1.733-5.446h-6.024l-1.65,5.446h-3.08l5.968-18.543h3.686L64.5,44.18z M59.081,36.45
				l-1.567-4.841c-0.166-0.495-0.477-1.662-0.935-3.495h-0.056c-0.182,0.788-0.476,1.953-0.88,3.495l-1.54,4.841H59.081z"/>
			<path fill="#FFFFFF" d="M79.85,37.332c0,2.273-0.614,4.07-1.843,5.39c-1.101,1.175-2.468,1.762-4.099,1.762
				c-1.761,0-3.025-0.632-3.797-1.897h-0.055v7.042h-2.97V35.211c0-1.429-0.038-2.895-0.11-4.4h2.612l0.166,2.12h0.056
				c0.99-1.598,2.494-2.396,4.511-2.396c1.578,0,2.894,0.625,3.947,1.87C79.323,33.655,79.85,35.295,79.85,37.332z M76.823,37.441
				c0-1.302-0.293-2.376-0.881-3.22c-0.642-0.879-1.504-1.32-2.585-1.32c-0.732,0-1.399,0.245-1.994,0.729
				c-0.596,0.488-0.987,1.125-1.168,1.912c-0.092,0.369-0.139,0.669-0.139,0.906v2.229c0,0.971,0.299,1.792,0.895,2.463
				c0.597,0.669,1.371,1.004,2.324,1.004c1.119,0,1.99-0.433,2.612-1.293C76.511,39.99,76.823,38.852,76.823,37.441z"/>
			<path fill="#FFFFFF" d="M95.224,37.332c0,2.273-0.614,4.07-1.844,5.39c-1.1,1.175-2.466,1.762-4.098,1.762
				c-1.762,0-3.026-0.632-3.795-1.897h-0.057v7.042h-2.968V35.211c0-1.429-0.037-2.895-0.11-4.4h2.612l0.165,2.12h0.057
				c0.989-1.598,2.492-2.396,4.508-2.396c1.576,0,2.894,0.625,3.949,1.87C94.695,33.655,95.224,35.295,95.224,37.332z
				 M92.199,37.441c0-1.302-0.294-2.376-0.883-3.22c-0.643-0.879-1.501-1.32-2.585-1.32c-0.735,0-1.398,0.245-1.994,0.729
				c-0.597,0.488-0.985,1.125-1.167,1.912c-0.092,0.369-0.14,0.669-0.14,0.906v2.229c0,0.971,0.299,1.792,0.894,2.463
				c0.596,0.668,1.37,1.004,2.327,1.004c1.118,0,1.988-0.433,2.611-1.293C91.885,39.99,92.199,38.852,92.199,37.441z"/>
			<path fill="#FFFFFF" d="M112.416,38.98c0,1.578-0.548,2.861-1.646,3.853c-1.208,1.081-2.889,1.622-5.051,1.622
				c-1.994,0-3.595-0.385-4.806-1.154l0.689-2.477c1.304,0.79,2.734,1.185,4.294,1.185c1.118,0,1.988-0.253,2.615-0.759
				c0.622-0.504,0.933-1.182,0.933-2.024c0-0.753-0.256-1.387-0.77-1.901c-0.512-0.514-1.366-0.991-2.559-1.433
				c-3.246-1.211-4.868-2.983-4.868-5.317c0-1.525,0.57-2.775,1.706-3.748c1.135-0.974,2.647-1.46,4.54-1.46
				c1.687,0,3.089,0.294,4.207,0.88l-0.742,2.422c-1.045-0.568-2.228-0.853-3.55-0.853c-1.046,0-1.861,0.258-2.446,0.771
				c-0.493,0.458-0.741,1.017-0.741,1.68c0,0.733,0.282,1.341,0.851,1.817c0.495,0.438,1.392,0.916,2.697,1.432
				c1.596,0.642,2.767,1.392,3.521,2.252C112.041,36.625,112.416,37.699,112.416,38.98z"/>
			<path fill="#FFFFFF" d="M122.236,33.041h-3.274v6.49c0,1.65,0.579,2.476,1.735,2.476c0.529,0,0.971-0.045,1.319-0.138
				l0.081,2.255c-0.585,0.22-1.354,0.33-2.312,0.33c-1.172,0-2.089-0.358-2.75-1.073c-0.659-0.715-0.989-1.916-0.989-3.604v-6.738
				h-1.952v-2.229h1.952v-2.45l2.915-0.88v3.33h3.274V33.041L122.236,33.041z"/>
			<path fill="#FFFFFF" d="M137.01,37.386c0,2.053-0.589,3.74-1.764,5.061c-1.229,1.357-2.861,2.036-4.896,2.036
				c-1.963,0-3.524-0.651-4.688-1.952c-1.165-1.302-1.747-2.944-1.747-4.923c0-2.073,0.599-3.77,1.801-5.09
				c1.197-1.32,2.817-1.981,4.852-1.981c1.963,0,3.54,0.652,4.733,1.956C136.441,33.755,137.01,35.385,137.01,37.386z
				 M133.927,37.481c0-1.233-0.264-2.29-0.796-3.171c-0.625-1.068-1.516-1.6-2.668-1.6c-1.194,0-2.102,0.533-2.724,1.6
				c-0.534,0.882-0.796,1.957-0.796,3.228c0,1.232,0.262,2.291,0.796,3.17c0.643,1.067,1.539,1.601,2.697,1.601
				c1.135,0,2.025-0.545,2.668-1.628C133.65,39.783,133.927,38.714,133.927,37.481z"/>
			<path fill="#FFFFFF" d="M146.664,33.423c-0.294-0.055-0.608-0.081-0.937-0.081c-1.046,0-1.854,0.394-2.422,1.183
				c-0.496,0.697-0.743,1.578-0.743,2.64v7.016h-2.968l0.025-9.159c0-1.539-0.036-2.943-0.11-4.209h2.587l0.108,2.559h0.083
				c0.314-0.878,0.808-1.588,1.485-2.119c0.66-0.478,1.378-0.716,2.147-0.716c0.274,0,0.521,0.019,0.743,0.055V33.423z"/>
			<path fill="#FFFFFF" d="M159.948,36.863c0,0.532-0.036,0.98-0.108,1.348h-8.912c0.034,1.32,0.466,2.331,1.292,3.028
				c0.751,0.621,1.723,0.933,2.915,0.933c1.319,0,2.524-0.209,3.606-0.631l0.466,2.062c-1.266,0.551-2.759,0.826-4.483,0.826
				c-2.073,0-3.699-0.61-4.884-1.829c-1.183-1.22-1.773-2.857-1.773-4.91c0-2.016,0.551-3.693,1.652-5.032
				c1.154-1.43,2.712-2.146,4.675-2.146c1.926,0,3.385,0.716,4.376,2.146C159.554,33.791,159.948,35.195,159.948,36.863z
				 M157.115,36.092c0.019-0.881-0.175-1.64-0.576-2.282c-0.516-0.827-1.304-1.239-2.367-1.239c-0.974,0-1.761,0.403-2.365,1.211
				c-0.494,0.642-0.788,1.413-0.879,2.31L157.115,36.092L157.115,36.092z"/>
		</g>
		<g>
			<g>
				<path fill="#FFFFFF" d="M58.099,14.231c0,1.64-0.492,2.875-1.474,3.703c-0.91,0.765-2.203,1.148-3.877,1.148
					c-0.831,0-1.541-0.037-2.136-0.109v-8.96c0.776-0.125,1.612-0.189,2.515-0.189c1.595,0,2.797,0.346,3.608,1.041
					C57.643,11.65,58.099,12.771,58.099,14.231z M56.559,14.272c0-1.063-0.281-1.878-0.844-2.446
					c-0.562-0.568-1.384-0.852-2.468-0.852c-0.459,0-0.851,0.031-1.175,0.095v6.811c0.179,0.028,0.508,0.041,0.986,0.041
					c1.117,0,1.979-0.311,2.587-0.932C56.253,16.368,56.559,15.462,56.559,14.272z"/>
				<path fill="#FFFFFF" d="M66.262,15.664c0,1.011-0.288,1.838-0.865,2.488c-0.604,0.666-1.406,1-2.406,1
					c-0.964,0-1.732-0.319-2.305-0.96c-0.571-0.639-0.857-1.446-0.857-2.418c0-1.017,0.294-1.852,0.884-2.5
					c0.591-0.647,1.385-0.972,2.386-0.972c0.964,0,1.739,0.319,2.325,0.958C65.981,13.88,66.262,14.683,66.262,15.664z
					 M64.747,15.71c0-0.606-0.131-1.125-0.392-1.558c-0.307-0.523-0.743-0.786-1.31-0.786c-0.586,0-1.033,0.262-1.339,0.786
					c-0.262,0.434-0.391,0.961-0.391,1.585c0,0.606,0.131,1.126,0.391,1.56c0.316,0.523,0.757,0.785,1.325,0.785
					c0.558,0,0.996-0.266,1.31-0.799C64.612,16.841,64.747,16.317,64.747,15.71z"/>
				<path fill="#FFFFFF" d="M77.206,12.434l-2.055,6.568h-1.337l-0.852-2.852c-0.216-0.712-0.392-1.419-0.528-2.122h-0.027
					c-0.126,0.722-0.302,1.429-0.528,2.122l-0.904,2.852h-1.353l-1.932-6.568h1.5l0.742,3.123c0.18,0.739,0.328,1.442,0.446,2.108
					h0.026c0.109-0.549,0.288-1.248,0.542-2.094l0.932-3.135h1.19l0.893,3.068c0.216,0.748,0.392,1.469,0.527,2.163h0.04
					c0.1-0.675,0.249-1.396,0.446-2.163l0.797-3.068h1.434V12.434z"/>
				<path fill="#FFFFFF" d="M84.775,19.002h-1.46V15.24c0-1.159-0.44-1.739-1.323-1.739c-0.433,0-0.783,0.159-1.056,0.479
					c-0.268,0.319-0.405,0.695-0.405,1.125v3.896h-1.46v-4.69c0-0.577-0.018-1.202-0.053-1.879h1.284l0.068,1.027h0.04
					c0.17-0.319,0.423-0.582,0.757-0.793c0.396-0.245,0.838-0.369,1.324-0.369c0.612,0,1.122,0.198,1.527,0.595
					c0.505,0.486,0.757,1.212,0.757,2.176V19.002z"/>
				<path fill="#FFFFFF" d="M88.8,19.002h-1.458V9.421H88.8V19.002z"/>
				<path fill="#FFFFFF" d="M97.396,15.664c0,1.011-0.288,1.838-0.864,2.488c-0.604,0.666-1.408,1-2.406,1
					c-0.967,0-1.734-0.319-2.305-0.96c-0.572-0.639-0.858-1.446-0.858-2.418c0-1.017,0.294-1.852,0.885-2.5
					c0.593-0.647,1.386-0.972,2.384-0.972c0.967,0,1.738,0.319,2.329,0.958C97.115,13.88,97.396,14.683,97.396,15.664z
					 M95.881,15.71c0-0.606-0.132-1.125-0.394-1.558c-0.304-0.523-0.741-0.786-1.308-0.786c-0.588,0-1.033,0.262-1.34,0.786
					c-0.26,0.434-0.389,0.961-0.389,1.585c0,0.606,0.129,1.126,0.389,1.56c0.318,0.523,0.758,0.785,1.326,0.785
					c0.558,0,0.993-0.266,1.31-0.799C95.747,16.841,95.881,16.317,95.881,15.71z"/>
				<path fill="#FFFFFF" d="M104.462,19.002h-1.312l-0.109-0.757h-0.038c-0.449,0.604-1.088,0.906-1.92,0.906
					c-0.619,0-1.12-0.199-1.497-0.595c-0.345-0.359-0.516-0.806-0.516-1.337c0-0.802,0.334-1.414,1.009-1.837
					c0.671-0.423,1.614-0.632,2.831-0.622v-0.123c0-0.864-0.453-1.296-1.364-1.296c-0.648,0-1.219,0.163-1.713,0.485l-0.296-0.958
					c0.608-0.378,1.364-0.567,2.253-0.567c1.717,0,2.577,0.905,2.577,2.717v2.418C104.367,18.093,104.399,18.615,104.462,19.002z
					 M102.946,16.745v-1.013c-1.609-0.028-2.416,0.414-2.416,1.324c0,0.343,0.093,0.599,0.28,0.77
					c0.188,0.172,0.428,0.256,0.713,0.256c0.321,0,0.621-0.101,0.893-0.303c0.274-0.204,0.443-0.461,0.506-0.778
					C102.938,16.93,102.946,16.843,102.946,16.745z"/>
				<path fill="#FFFFFF" d="M112.759,19.002h-1.296l-0.068-1.055h-0.04c-0.413,0.802-1.118,1.204-2.107,1.204
					c-0.792,0-1.451-0.311-1.975-0.932c-0.522-0.622-0.784-1.428-0.784-2.419c0-1.062,0.284-1.924,0.853-2.581
					c0.55-0.614,1.225-0.92,2.027-0.92c0.882,0,1.499,0.296,1.852,0.892h0.025v-3.77h1.461v7.812
					C112.706,17.872,112.725,18.461,112.759,19.002z M111.245,16.232v-1.095c0-0.189-0.014-0.343-0.04-0.459
					c-0.082-0.351-0.258-0.646-0.527-0.885c-0.272-0.238-0.599-0.357-0.978-0.357c-0.544,0-0.972,0.215-1.283,0.648
					c-0.311,0.434-0.47,0.986-0.47,1.663c0,0.648,0.151,1.175,0.449,1.581c0.316,0.432,0.743,0.648,1.277,0.648
					c0.478,0,0.862-0.18,1.152-0.54C111.106,17.102,111.245,16.701,111.245,16.232z"/>
				<path fill="#FFFFFF" d="M125.247,15.664c0,1.011-0.291,1.838-0.867,2.488c-0.604,0.666-1.404,1-2.405,1
					c-0.963,0-1.73-0.319-2.305-0.96c-0.57-0.639-0.856-1.446-0.856-2.418c0-1.017,0.294-1.852,0.885-2.5
					c0.59-0.647,1.384-0.972,2.385-0.972c0.964,0,1.739,0.319,2.325,0.958C124.967,13.88,125.247,14.683,125.247,15.664z
					 M123.733,15.71c0-0.606-0.131-1.125-0.393-1.558c-0.307-0.523-0.741-0.786-1.312-0.786c-0.585,0-1.03,0.262-1.338,0.786
					c-0.263,0.434-0.392,0.961-0.392,1.585c0,0.606,0.132,1.126,0.392,1.56c0.316,0.523,0.755,0.785,1.325,0.785
					c0.557,0,0.995-0.266,1.31-0.799C123.597,16.841,123.733,16.317,123.733,15.71z"/>
				<path fill="#FFFFFF" d="M133.097,19.002h-1.459V15.24c0-1.159-0.441-1.739-1.326-1.739c-0.431,0-0.781,0.159-1.052,0.479
					c-0.27,0.319-0.406,0.695-0.406,1.125v3.896h-1.461v-4.69c0-0.577-0.017-1.202-0.051-1.879h1.281l0.067,1.027h0.042
					c0.171-0.319,0.423-0.582,0.756-0.793c0.396-0.245,0.838-0.369,1.325-0.369c0.612,0,1.12,0.198,1.525,0.595
					c0.508,0.486,0.758,1.212,0.758,2.176V19.002z"/>
				<path fill="#FFFFFF" d="M142.923,13.528h-1.607v3.19c0,0.811,0.283,1.216,0.85,1.216c0.262,0,0.479-0.022,0.651-0.068
					l0.038,1.107c-0.288,0.109-0.667,0.163-1.135,0.163c-0.576,0-1.025-0.176-1.35-0.527c-0.326-0.351-0.487-0.941-0.487-1.771
					v-3.311h-0.961v-1.094h0.961V11.23l1.43-0.432v1.634h1.61V13.528L142.923,13.528z"/>
				<path fill="#FFFFFF" d="M150.651,19.002h-1.46v-3.734c0-1.177-0.441-1.767-1.322-1.767c-0.677,0-1.141,0.341-1.395,1.024
					c-0.042,0.144-0.066,0.319-0.066,0.525v3.95h-1.458v-9.58h1.458v3.958h0.026c0.46-0.72,1.118-1.08,1.973-1.08
					c0.604,0,1.106,0.198,1.503,0.595c0.494,0.495,0.741,1.23,0.741,2.203V19.002L150.651,19.002z"/>
				<path fill="#FFFFFF" d="M158.625,15.407c0,0.262-0.019,0.483-0.055,0.662h-4.379c0.021,0.649,0.23,1.144,0.635,1.486
					c0.371,0.307,0.849,0.46,1.433,0.46c0.649,0,1.239-0.103,1.771-0.311l0.228,1.014c-0.623,0.271-1.354,0.406-2.204,0.406
					c-1.016,0-1.817-0.299-2.397-0.899c-0.583-0.599-0.871-1.402-0.871-2.411c0-0.99,0.271-1.816,0.812-2.473
					c0.566-0.702,1.33-1.053,2.295-1.053c0.944,0,1.664,0.351,2.147,1.053C158.433,13.899,158.625,14.588,158.625,15.407z
					 M157.232,15.03c0.01-0.434-0.085-0.807-0.284-1.122c-0.252-0.405-0.639-0.609-1.161-0.609c-0.477,0-0.866,0.198-1.162,0.596
					c-0.242,0.316-0.387,0.693-0.434,1.135H157.232z"/>
			</g>
		</g>
	</g>
</g>
<g id="Layer_2">
	<circle fill="#ACACAD" cx="41.835" cy="14.516" r="8"/>
	<circle fill="#ACACAD" cx="65.168" cy="14.516" r="8"/>
	<circle fill="#585859" cx="19.002" cy="14.516" r="8"/>
</g>
</svg>
