<?xml version="1.0" encoding="utf-8"?>
<!-- Generator: Adobe Illustrator 16.0.0, SVG Export Plug-In . SVG Version: 6.00 Build 0)  -->
<!DOCTYPE svg PUBLIC "-//W3C//DTD SVG 1.1//EN" "http://www.w3.org/Graphics/SVG/1.1/DTD/svg11.dtd">
<svg version="1.1" xmlns="http://www.w3.org/2000/svg" xmlns:xlink="http://www.w3.org/1999/xlink" x="0px" y="0px" width="500px"
	 height="500px" viewBox="0 0 500 500" enable-background="new 0 0 500 500" xml:space="preserve">
<g id="Layer_1" display="none">
	<path display="inline" fill-rule="evenodd" clip-rule="evenodd" d="M50.245,244.603c10.505,0,21.01,0.031,31.515-0.038
		c1.354-0.009,2.239,0.468,3.029,1.423c0.159,0.192,0.419,0.296,0.596,0.477c0.157,0.161,0.372,0.371,0.374,0.562
		c0.027,2.12,0.029,4.24-0.001,6.359c-0.003,0.202-0.248,0.424-0.422,0.593c-0.441,0.425-0.97,0.774-1.343,1.249
		c-0.393,0.5-0.844,0.608-1.426,0.607c-6.241-0.011-12.482-0.007-18.723-0.007c-15.031,0-30.062-0.022-45.093,0.037
		c-1.353,0.005-2.239-0.467-3.029-1.422c-0.159-0.191-0.419-0.296-0.595-0.477c-0.157-0.161-0.372-0.371-0.375-0.562
		c-0.026-2.12-0.029-4.24,0.002-6.359c0.003-0.201,0.247-0.425,0.422-0.593c0.424-0.408,0.947-0.734,1.295-1.195
		c0.418-0.553,0.911-0.663,1.546-0.663C28.758,244.606,39.501,244.603,50.245,244.603z"/>
	<path display="inline" fill-rule="evenodd" clip-rule="evenodd" d="M14.74,270.228c0.751-0.712,1.305-1.284,1.912-1.792
		c0.268-0.223,0.632-0.356,0.974-0.455c0.242-0.07,0.52-0.015,0.782-0.015c21.129,0,42.259,0.016,63.388-0.037
		c1.323-0.003,2.202,0.442,2.973,1.378c0.091,0.11,0.17,0.284,0.284,0.312c0.915,0.231,0.726,0.951,0.727,1.586
		c0.003,1.787,0,3.573,0.003,5.36c0,0.372-0.084,0.583-0.477,0.814c-0.547,0.322-0.936,0.908-1.411,1.361
		c-0.177,0.168-0.392,0.332-0.619,0.404c-0.216,0.069-0.472,0.017-0.71,0.017c-21.272,0-42.544-0.014-63.816,0.033
		c-1.28,0.003-2.227-0.247-2.953-1.305c-0.174-0.254-0.512-0.391-0.754-0.606c-0.125-0.111-0.288-0.273-0.289-0.414
		C14.735,274.564,14.74,272.257,14.74,270.228z"/>
	<path display="inline" fill-rule="evenodd" clip-rule="evenodd" d="M50.332,222.269c10.53,0,21.06,0,31.589,0
		c1.688,0,1.681,0.006,2.794,1.216c0.217,0.235,0.521,0.388,0.753,0.612c0.134,0.128,0.29,0.321,0.292,0.486
		c0.02,2.144,0.018,4.288,0.005,6.432c-0.001,0.166-0.079,0.379-0.198,0.487c-0.571,0.518-1.154,1.026-1.763,1.498
		c-0.245,0.189-0.56,0.317-0.863,0.396c-0.245,0.064-0.521,0.015-0.783,0.015c-21.131,0-42.262-0.016-63.393,0.038
		c-1.319,0.003-2.206-0.424-2.989-1.349c-0.107-0.127-0.205-0.323-0.339-0.356c-0.838-0.206-0.715-0.847-0.713-1.455
		c0.007-1.811,0.003-3.621,0.002-5.432c0-0.389,0.053-0.636,0.502-0.872c0.537-0.283,0.904-0.879,1.369-1.313
		c0.181-0.169,0.413-0.316,0.648-0.386c0.219-0.065,0.472-0.016,0.71-0.016C28.748,222.269,39.54,222.269,50.332,222.269z"/>
</g>
<g id="Layer_2">
	<g>
		<g>
			<g>
				<path fill-rule="evenodd" clip-rule="evenodd" fill="#FFFFFF" d="M433,150c0,9.35-7.65,17-17,17H83c-9.35,0-17-7.65-17-17v-28
					c0-9.35,7.65-17,17-17h333c9.35,0,17,7.65,17,17V150z"/>
			</g>
			<g>
				<path fill-rule="evenodd" clip-rule="evenodd" fill="#FFFFFF" d="M433,264c0,9.35-7.65,17-17,17H83c-9.35,0-17-7.65-17-17v-27
					c0-9.35,7.65-17,17-17h333c9.35,0,17,7.65,17,17V264z"/>
			</g>
			<g>
				<path fill-rule="evenodd" clip-rule="evenodd" fill="#FFFFFF" d="M433,378c0,9.35-7.65,17-17,17H83c-9.35,0-17-7.65-17-17v-28
					c0-9.35,7.65-17,17-17h333c9.35,0,17,7.65,17,17V378z"/>
			</g>
		</g>
	</g>
</g>
</svg>
