<?xml version="1.0" encoding="utf-8"?>
<!-- Generator: Adobe Illustrator 16.0.0, SVG Export Plug-In . SVG Version: 6.00 Build 0)  -->
<!DOCTYPE svg PUBLIC "-//W3C//DTD SVG 1.1//EN" "http://www.w3.org/Graphics/SVG/1.1/DTD/svg11.dtd">
<svg version="1.1" id="Layer_1" xmlns="http://www.w3.org/2000/svg" xmlns:xlink="http://www.w3.org/1999/xlink" x="0px" y="0px"
	 width="169.672px" height="58.875px" viewBox="0 0 169.672 58.875" enable-background="new 0 0 169.672 58.875"
	 xml:space="preserve">
<g>
	<g>
		<path fill="#FFFFFF" d="M115.149,41.416l-1.268,1.191c-0.291,0.16-0.582,0.35-0.873,0.48c-0.878,0.398-1.771,0.498-2.563,0.498
			c-0.847,0-2.17-0.055-3.521-1.031c-1.879-1.322-2.697-3.594-2.697-5.576c0-4.102,3.34-6.113,6.062-6.113
			c0.952,0,1.929,0.24,2.724,0.742c1.322,0.873,1.664,2.01,1.854,2.617l-6.219,2.514l-2.038,0.158
			c0.66,3.361,2.936,5.316,5.449,5.316c1.256,0,2.188-0.408,3.043-0.832C115.101,41.382,115.272,41.292,115.149,41.416z
			 M111.397,34.726c0.505-0.184,0.768-0.342,0.768-0.711c0-1.057-1.195-2.275-2.621-2.275c-1.057,0-3.041,0.822-3.041,3.682
			c0,0.443,0.053,0.92,0.08,1.396L111.397,34.726z"/>
		<path fill="#FFFFFF" d="M102.147,41.208c0,1.027,0.184,1.188,1.053,1.27c0.453,0.053,0.905,0.076,1.354,0.131l-0.979,0.582h-4.66
			c0.611-0.793,0.715-0.871,0.715-1.398v-0.594l-0.01-15.724h-2.059l1.979-0.955h3.782c-0.819,0.475-1.065,0.763-1.171,1.688
			L102.147,41.208z"/>
		<path fill="#FFFFFF" d="M94.919,32.164c0.606,0.5,1.874,1.559,1.874,3.568c0,1.957-1.104,2.881-2.218,3.756
			c-0.342,0.346-0.741,0.719-0.741,1.297c0,0.584,0.399,0.9,0.688,1.139l0.957,0.736c1.158,0.98,2.22,1.881,2.22,3.705
			c0,2.488-2.407,4.996-6.958,4.996c-3.834,0-5.688-1.822-5.688-3.779c0-0.953,0.475-2.303,2.038-3.229
			c1.642-1.002,3.862-1.137,5.054-1.213c-0.372-0.48-0.797-0.984-0.797-1.803c0-0.449,0.137-0.717,0.266-1.031
			c-0.289,0.027-0.58,0.057-0.846,0.057c-2.807,0-4.395-2.096-4.395-4.154c0-1.219,0.557-2.566,1.695-3.545
			c1.508-1.242,3.307-1.457,4.732-1.457h5.451l-1.691,0.957H94.919L94.919,32.164z M93.044,43.908
			c-0.217-0.027-0.348-0.027-0.607-0.027c-0.239,0-1.668,0.053-2.775,0.424c-0.584,0.215-2.277,0.846-2.277,2.725
			c0,1.875,1.827,3.23,4.653,3.23c2.54,0,3.889-1.219,3.889-2.857C95.924,46.05,95.052,45.337,93.044,43.908z M93.804,38.88
			c0.613-0.611,0.665-1.453,0.665-1.934c0-1.9-1.134-4.863-3.333-4.863c-0.686,0-1.429,0.344-1.852,0.875
			c-0.445,0.553-0.579,1.268-0.579,1.953c0,1.771,1.032,4.711,3.304,4.711C92.673,39.623,93.386,39.298,93.804,38.88z"/>
		<path fill="#FFFFFF" d="M78.519,43.533c-4.205,0-6.453-3.273-6.453-6.236c0-3.465,2.828-6.43,6.85-6.43
			c3.889,0,6.324,3.045,6.324,6.24C85.239,40.228,82.832,43.533,78.519,43.533z M81.827,41.392c0.641-0.846,0.794-1.902,0.794-2.932
			c0-2.33-1.11-6.773-4.392-6.773c-0.871,0-1.75,0.342-2.383,0.898c-1.035,0.926-1.218,2.088-1.218,3.229
			c0,2.613,1.292,6.924,4.499,6.924C80.162,42.738,81.218,42.238,81.827,41.392z"/>
		<path fill="#FFFFFF" d="M64.44,43.533c-4.205,0-6.45-3.273-6.45-6.236c0-3.465,2.83-6.43,6.851-6.43
			c3.887,0,6.318,3.045,6.318,6.24C71.159,40.228,68.757,43.533,64.44,43.533z M67.75,41.392c0.634-0.846,0.793-1.902,0.793-2.932
			c0-2.33-1.112-6.773-4.391-6.773c-0.875,0-1.745,0.342-2.38,0.898c-1.035,0.926-1.217,2.088-1.217,3.229
			c0,2.613,1.295,6.924,4.496,6.924C66.086,42.738,67.14,42.238,67.75,41.392z"/>
		<path fill="#FFFFFF" d="M56.31,42.615l-3.547,0.812c-1.437,0.229-2.727,0.428-4.093,0.428c-6.84,0-9.446-5.035-9.446-8.977
			c0-4.812,3.692-9.273,10.017-9.273c1.337,0,2.625,0.195,3.798,0.515c1.857,0.522,2.729,1.167,3.271,1.544l-2.062,1.959
			l-0.869,0.191l0.619-0.986c-0.838-0.818-2.38-2.332-5.306-2.332c-3.913,0-6.864,2.973-6.864,7.316
			c0,4.662,3.371,9.049,8.774,9.049c1.588,0,2.406-0.318,3.146-0.615v-3.998l-3.744,0.199l1.985-1.064h5.254l-0.644,0.619
			c-0.174,0.146-0.195,0.195-0.244,0.396c-0.026,0.227-0.051,0.943-0.051,1.195v3.021H56.31L56.31,42.615z"/>
	</g>
	<g>
		<path fill="#FFFFFF" d="M122.774,41.527v6.738h-1.338V31.121h1.338v1.951c0.871-1.262,2.464-2.262,4.312-2.262
			c3.317,0,5.555,2.518,5.555,6.5c0,3.959-2.235,6.527-5.555,6.527C125.342,43.839,123.778,42.939,122.774,41.527z M131.204,37.312
			c0-3.002-1.565-5.293-4.342-5.293c-1.725,0-3.371,1.355-4.088,2.535v5.488c0.717,1.184,2.363,2.588,4.088,2.588
			C129.639,42.63,131.204,40.32,131.204,37.312z"/>
		<path fill="#FFFFFF" d="M134.468,43.531V26.389h1.341v17.142H134.468z"/>
		<path fill="#FFFFFF" d="M150.82,47.156c0.285,0.129,0.772,0.207,1.083,0.207c0.816,0,1.389-0.336,1.898-1.518l0.979-2.211
			l-5.271-12.514h1.492l4.522,10.846l4.478-10.846h1.514l-6.43,15.139c-0.666,1.561-1.716,2.311-3.158,2.311
			c-0.433,0-1.002-0.078-1.337-0.18L150.82,47.156z"/>
		<path fill="#FFFFFF" d="M146.911,43.494c-0.09-0.432-0.156-0.811-0.205-1.127c-0.041-0.314-0.062-0.641-0.062-0.969
			c-0.459,0.674-1.109,1.234-1.938,1.676c-0.831,0.443-1.62,0.662-2.704,0.662c-1.303,0-2.312-0.318-3.037-0.971
			c-0.72-0.65-1.082-1.531-1.082-2.645s0.525-2.018,1.57-2.705c1.046-0.695,2.397-1.037,4.07-1.037h3.121v-1.545
			c0-0.891-0.305-1.586-0.908-2.094c-0.606-0.508-1.458-0.762-2.562-0.762c-1.01,0-1.828,0.232-2.449,0.689
			c-0.617,0.465-0.93,1.041-0.93,1.736h-1.37l-0.025-0.066c-0.05-0.938,0.378-1.76,1.291-2.469c0.904-0.711,2.097-1.066,3.561-1.066
			c1.456,0,2.638,0.352,3.528,1.051c0.889,0.693,1.334,1.697,1.334,3.008v6.123c0,0.439,0.021,0.863,0.076,1.277
			c0.058,0.416,0.146,0.828,0.268,1.229L146.911,43.494L146.911,43.494z M142.163,42.519c1.137,0,1.953-0.254,2.789-0.756
			c0.828-0.5,1.394-1.15,1.689-1.939v-2.383h-3.137c-1.197,0-2.188,0.266-2.97,0.799c-0.781,0.533-1.179,1.18-1.179,1.932
			c0,0.707,0.252,1.271,0.75,1.701C140.608,42.304,141.292,42.519,142.163,42.519z"/>
	</g>
</g>
<g>
	<g>
		<path fill="#FFFFFF" d="M39.279,12.324c0-2.635,1.958-4.329,4.392-4.329c1.631,0,2.698,0.778,3.362,1.731l-1.19,0.689
			c-0.453-0.626-1.244-1.115-2.172-1.115c-1.656,0-2.886,1.254-2.886,3.022c0,1.745,1.229,3.024,2.886,3.024
			c0.854,0,1.605-0.39,1.982-0.752v-1.293h-2.51V12.01h3.965v3.125c-0.815,0.916-1.995,1.531-3.438,1.531
			C41.237,16.666,39.279,14.947,39.279,12.324z"/>
		<path fill="#FFFFFF" d="M48.925,16.503v-8.37h5.734v1.293h-4.266v2.157h4.178v1.292h-4.178v2.334h4.266v1.293L48.925,16.503
			L48.925,16.503z"/>
		<path fill="#FFFFFF" d="M58.722,16.503V9.426h-2.535V8.135h6.537v1.291h-2.535v7.077H58.722z"/>
		<path fill="#FFFFFF" d="M67.825,16.503v-8.37h1.468v8.37H67.825z"/>
		<path fill="#FFFFFF" d="M73.38,16.503V9.426h-2.533V8.135h6.535v1.291h-2.533v7.077H73.38z"/>
		<path fill="#FFFFFF" d="M82.121,12.324c0-2.497,1.769-4.329,4.279-4.329c2.496,0,4.276,1.832,4.276,4.329s-1.78,4.329-4.276,4.329
			C83.89,16.653,82.121,14.821,82.121,12.324z M89.173,12.324c0-1.73-1.092-3.023-2.771-3.023c-1.694,0-2.773,1.293-2.773,3.023
			c0,1.72,1.079,3.023,2.773,3.023C88.081,15.348,89.173,14.044,89.173,12.324z"/>
		<path fill="#FFFFFF" d="M98.227,16.503l-4.366-5.985v5.985h-1.467v-8.37h1.506l4.275,5.797V8.133h1.471v8.37H98.227z"/>
	</g>
</g>
<g>
	<polygon fill="none" points="21.751,36.615 26.044,32.322 26.043,32.322 21.751,36.615 8.052,22.915 8.052,22.915 21.751,36.617 
		8.029,50.337 8.029,50.337 21.751,36.617 26.063,40.927 26.065,40.927 	"/>
	
		<linearGradient id="SVGID_1_" gradientUnits="userSpaceOnUse" x1="449.7246" y1="-497.0386" x2="431.6355" y2="-508.3595" gradientTransform="matrix(0.7071 0.7071 -0.7071 0.7071 -650.5928 68.9685)">
		<stop  offset="0" style="stop-color:#D7E69D"/>
		<stop  offset="0.4456" style="stop-color:#94C4AA"/>
		<stop  offset="1" style="stop-color:#01A4B6"/>
	</linearGradient>
	<path fill="url(#SVGID_1_)" d="M26.043,32.322L9.317,23.126c-0.473-0.259-0.912-0.319-1.266-0.21l13.7,13.699L26.043,32.322z"/>
	
		<linearGradient id="SVGID_2_" gradientUnits="userSpaceOnUse" x1="439.207" y1="-506.7095" x2="462.6608" y2="-500.5784" gradientTransform="matrix(0.7071 0.7071 -0.7071 0.7071 -650.5928 68.9685)">
		<stop  offset="0" style="stop-color:#ED277B"/>
		<stop  offset="0.0192" style="stop-color:#EE2F7C"/>
		<stop  offset="0.7039" style="stop-color:#F7BD81"/>
		<stop  offset="1" style="stop-color:#FEEB74"/>
	</linearGradient>
	<path fill="url(#SVGID_2_)" d="M26.065,40.927l5.709-3.141c1.158-0.641,1.158-1.68,0-2.314l-5.73-3.15l-4.292,4.293L26.065,40.927z
		"/>
	
		<linearGradient id="SVGID_3_" gradientUnits="userSpaceOnUse" x1="452.2998" y1="-488.4531" x2="426.8689" y2="-503.4152" gradientTransform="matrix(0.7071 0.7071 -0.7071 0.7071 -650.5928 68.9685)">
		<stop  offset="0" style="stop-color:#89CFBD"/>
		<stop  offset="0.0907" style="stop-color:#7DBEBB"/>
		<stop  offset="0.5396" style="stop-color:#457CAC"/>
		<stop  offset="0.8523" style="stop-color:#1C5AA2"/>
		<stop  offset="1" style="stop-color:#084D9F"/>
	</linearGradient>
	<path fill="url(#SVGID_3_)" d="M8.052,22.915c-0.509,0.159-0.839,0.675-0.839,1.454L7.216,48.89c0,0.77,0.32,1.277,0.813,1.447
		l13.723-13.725L8.052,22.915z"/>
	
		<linearGradient id="SVGID_4_" gradientUnits="userSpaceOnUse" x1="461.5332" y1="-500.334" x2="445.8739" y2="-479.7036" gradientTransform="matrix(0.7071 0.7071 -0.7071 0.7071 -650.5928 68.9685)">
		<stop  offset="0" style="stop-color:#F04A2B"/>
		<stop  offset="0.4704" style="stop-color:#B54F6B"/>
		<stop  offset="0.8353" style="stop-color:#8B5191"/>
		<stop  offset="1" style="stop-color:#7851A1"/>
	</linearGradient>
	<path fill="url(#SVGID_4_)" d="M8.029,50.337c0.356,0.121,0.804,0.062,1.288-0.201l16.746-9.209l-4.312-4.312L8.029,50.337z"/>
</g>
</svg>
