<?xml version="1.0" encoding="utf-8"?>
<!-- Generator: Adobe Illustrator 16.0.0, SVG Export Plug-In . SVG Version: 6.00 Build 0)  -->
<!DOCTYPE svg PUBLIC "-//W3C//DTD SVG 1.1//EN" "http://www.w3.org/Graphics/SVG/1.1/DTD/svg11.dtd">
<svg version="1.1" id="Layer_1" xmlns="http://www.w3.org/2000/svg" xmlns:xlink="http://www.w3.org/1999/xlink" x="0px" y="0px"
	 width="51.167px" height="50.833px" viewBox="0 0 51.167 50.833" style="enable-background:new 0 0 51.167 50.833;"
	 xml:space="preserve">
<style type="text/css">
<![CDATA[
	.st0{fill:#231F20;}
	.st1{fill:#FFFFFF;}
]]>
</style>
<circle class="st0" cx="130.5" cy="22.998" r="43.833"/>
<g>
	<g>
		<g>
			<path class="st1" d="M45.415,45.33c-1.132,1.133-2.985,1.133-4.118,0L5.833,9.868c-1.132-1.132-1.132-2.986,0-4.118l0.418-0.418
				c1.132-1.132,2.986-1.132,4.118,0l35.462,35.462c1.133,1.133,1.133,2.986,0.001,4.119L45.415,45.33z"/>
		</g>
	</g>
</g>
<g>
	<g>
		<g>
			<path class="st1" d="M10.37,45.33c-1.132,1.133-2.986,1.133-4.118,0l-0.418-0.418c-1.132-1.133-1.132-2.986,0-4.119L41.297,5.331
				c1.133-1.132,2.986-1.132,4.118,0l0.418,0.417c1.132,1.133,1.132,2.986-0.001,4.119L10.37,45.33z"/>
		</g>
	</g>
</g>
</svg>
