<?xml version="1.0" encoding="utf-8"?>
<!-- Generator: Adobe Illustrator 16.0.0, SVG Export Plug-In . SVG Version: 6.00 Build 0)  -->
<!DOCTYPE svg PUBLIC "-//W3C//DTD SVG 1.1//EN" "http://www.w3.org/Graphics/SVG/1.1/DTD/svg11.dtd">
<svg version="1.1" id="Layer_1" xmlns="http://www.w3.org/2000/svg" xmlns:xlink="http://www.w3.org/1999/xlink" x="0px" y="0px"
	 width="2246.999px" height="1195px" viewBox="0 0 2246.999 1195" style="enable-background:new 0 0 2246.999 1195;"
	 xml:space="preserve">
<style type="text/css">
<![CDATA[
	.st0{fill:#E0D570;}
	.st1{fill:#E26E6E;}
	.st2{fill:#E26EB3;}
	.st3{fill:#846EE2;}
	.st4{fill:#86E26E;}
	.st5{fill:#EDB46E;}
	.st6{fill:#CB6EE2;}
	.st7{fill:#6E9CE2;}
	.st8{fill:#6EE29D;}
	.st9{fill:#6EE2E2;}
]]>
</style>
<g id="non-metals">
	<g>
		<rect id="hydrogen_8_" class="st3" width="120" height="120"/>
		<rect id="carbon_8_" x="1625" y="125" class="st3" width="120" height="120"/>
		<rect id="nitrogen_8_" x="1750" y="125" class="st3" width="120" height="120"/>
		<rect id="oxygen_8_" x="1875" y="125" class="st3" width="120" height="120"/>
		<rect id="phosphorus_8_" x="1750" y="250" class="st3" width="120" height="120"/>
		<rect id="sulfur_8_" x="1875" y="250" class="st3" width="120" height="120"/>
		<rect id="selenium_8_" x="1875" y="375" class="st3" width="120" height="120"/>
	</g>
</g>
<g id="metalloids">
	<g>
		<rect x="1500" y="125" class="st7" width="120" height="120"/>
		<rect x="1625" y="250" class="st7" width="120" height="120"/>
		<rect x="1625" y="375" class="st7" width="120" height="120"/>
		<rect x="1750" y="375" class="st7" width="120" height="120"/>
		<rect x="1750" y="500" class="st7" width="120" height="120"/>
		<rect x="1875" y="500" class="st7" width="120" height="120"/>
		<rect x="1875" y="625" class="st7" width="120" height="120"/>
	</g>
</g>
<g id="alkali-metals">
	<g>
		<rect y="125" class="st1" width="120" height="120"/>
		<rect y="250" class="st1" width="120" height="120"/>
		<rect y="375" class="st1" width="120" height="120"/>
		<rect y="500" class="st1" width="120" height="120"/>
		<rect y="625" class="st1" width="120" height="120"/>
		<rect y="750" class="st1" width="120" height="120"/>
	</g>
</g>
<g id="alkaline-earth-metals">
	<g>
		<rect x="125" y="125" class="st5" width="120" height="120"/>
		<rect x="125" y="250" class="st5" width="120" height="120"/>
		<rect x="125" y="375" class="st5" width="120" height="120"/>
		<rect x="125" y="500" class="st5" width="120" height="120"/>
		<rect x="125" y="625" class="st5" width="120" height="120"/>
		<rect x="125" y="750" class="st5" width="120" height="120"/>
	</g>
</g>
<g id="transition-metals">
	<g>
		<rect x="250" y="375" class="st4" width="120" height="120"/>
		<rect x="375" y="375" class="st4" width="120" height="120"/>
		<rect x="500" y="375" class="st4" width="120" height="120"/>
		<rect x="625" y="375" class="st4" width="120" height="120"/>
		<rect x="750" y="375" class="st4" width="120" height="120"/>
		<rect x="875" y="375" class="st4" width="120" height="120"/>
		<rect x="1000" y="375" class="st4" width="120" height="120"/>
		<rect x="1125" y="375" class="st4" width="120" height="120"/>
		<rect x="1250" y="375" class="st4" width="120" height="120"/>
		<rect x="1375" y="375" class="st4" width="120" height="120"/>
		<rect x="250" y="500" class="st4" width="120" height="120"/>
		<rect x="375" y="500" class="st4" width="120" height="120"/>
		<rect x="500" y="500" class="st4" width="120" height="120"/>
		<rect x="625" y="500" class="st4" width="120" height="120"/>
		<rect x="750" y="500" class="st4" width="120" height="120"/>
		<rect x="875" y="500" class="st4" width="120" height="120"/>
		<rect x="1000" y="500" class="st4" width="120" height="120"/>
		<rect x="1125" y="500" class="st4" width="120" height="120"/>
		<rect x="1250" y="500" class="st4" width="120" height="120"/>
		<rect x="1375" y="500" class="st4" width="120" height="120"/>
		<rect x="375" y="625" class="st4" width="120" height="120"/>
		<rect x="500" y="625" class="st4" width="120" height="120"/>
		<rect x="625" y="625" class="st4" width="120" height="120"/>
		<rect x="750" y="625" class="st4" width="120" height="120"/>
		<rect x="875" y="625" class="st4" width="120" height="120"/>
		<rect x="1000" y="625" class="st4" width="120" height="120"/>
		<rect x="1125" y="625" class="st4" width="120" height="120"/>
		<rect x="1250" y="625" class="st4" width="120" height="120"/>
		<rect x="1375" y="625" class="st4" width="120" height="120"/>
		<rect x="375" y="750" class="st4" width="120" height="120"/>
		<rect x="500" y="750" class="st4" width="120" height="120"/>
		<rect x="625" y="750" class="st4" width="120" height="120"/>
		<rect x="750" y="750" class="st4" width="120" height="120"/>
		<rect x="875" y="750" class="st4" width="120" height="120"/>
		<rect x="1000" y="750" class="st4" width="120" height="120"/>
		<rect x="1125" y="750" class="st4" width="120" height="120"/>
		<rect x="1250" y="750" class="st4" width="120" height="120"/>
		<rect x="1375" y="750" class="st4" width="120" height="120"/>
	</g>
</g>
<g id="post-transition-metals">
	<g>
		<rect x="1500" y="250" class="st9" width="120" height="120"/>
		<rect x="1500" y="375" class="st9" width="120" height="120"/>
		<rect x="1500" y="500" class="st9" width="120" height="120"/>
		<rect x="1625" y="500" class="st9" width="120" height="120"/>
		<rect x="1500" y="625" class="st9" width="120" height="120"/>
		<rect x="1625" y="625" class="st9" width="120" height="120"/>
		<rect x="1750" y="625" class="st9" width="120" height="120"/>
		<rect x="1500" y="750" class="st9" width="120" height="120"/>
		<rect x="1625" y="750" class="st9" width="120" height="120"/>
		<rect x="1750" y="750" class="st9" width="120" height="120"/>
		<rect x="1875" y="750" class="st9" width="120" height="120"/>
	</g>
</g>
<g id="halogens">
	<g>
		<rect x="2000" y="125" class="st6" width="120" height="120"/>
		<rect x="2000" y="250" class="st6" width="120" height="120"/>
		<rect x="2000" y="375" class="st6" width="120" height="120"/>
		<rect x="2000" y="500" class="st6" width="120" height="120"/>
		<rect x="2000" y="625" class="st6" width="120" height="120"/>
		<rect x="2000" y="750" class="st6" width="120" height="120"/>
	</g>
</g>
<g id="noble-gases">
	<g>
		<rect x="2125" class="st2" width="120" height="120"/>
		<rect x="2125" y="125" class="st2" width="120" height="120"/>
		<rect x="2125" y="250" class="st2" width="120" height="120"/>
		<rect x="2125" y="375" class="st2" width="120" height="120"/>
		<rect x="2125" y="500" class="st2" width="120" height="120"/>
		<rect x="2125" y="625" class="st2" width="120" height="120"/>
		<rect x="2125" y="750" class="st2" width="120" height="120"/>
	</g>
</g>
<g id="lanthanoids">
	<g>
		<rect x="250" y="625" class="st0" width="120" height="120"/>
		<rect x="250" y="946.992" class="st0" width="120" height="120"/>
		<rect x="375" y="946.992" class="st0" width="120" height="120"/>
		<rect x="500" y="946.992" class="st0" width="120" height="120"/>
		<rect x="625" y="946.992" class="st0" width="120" height="120"/>
		<rect x="750" y="946.992" class="st0" width="120" height="120"/>
		<rect x="875" y="946.992" class="st0" width="120" height="120"/>
		<rect x="1000" y="946.992" class="st0" width="120" height="120"/>
		<rect x="1125" y="946.992" class="st0" width="120" height="120"/>
		<rect x="1250" y="946.992" class="st0" width="120" height="120"/>
		<rect x="1375" y="946.992" class="st0" width="120" height="120"/>
		<rect x="1500" y="946.992" class="st0" width="120" height="120"/>
		<rect x="1625" y="946.992" class="st0" width="120" height="120"/>
		<rect x="1750" y="946.992" class="st0" width="120" height="120"/>
		<rect x="1875" y="946.992" class="st0" width="120" height="120"/>
		<rect x="2000" y="946.992" class="st0" width="120" height="120"/>
	</g>
</g>
<g id="actinoids">
	<g>
		<rect x="250" y="750" class="st8" width="120" height="120"/>
		<rect x="250" y="1071.992" class="st8" width="120" height="120"/>
		<rect x="375" y="1071.992" class="st8" width="120" height="120"/>
		<rect x="500" y="1071.992" class="st8" width="120" height="120"/>
		<rect x="625" y="1071.992" class="st8" width="120" height="120"/>
		<rect x="750" y="1071.992" class="st8" width="120" height="120"/>
		<rect x="875" y="1071.992" class="st8" width="120" height="120"/>
		<rect x="1000" y="1071.992" class="st8" width="120" height="120"/>
		<rect x="1125" y="1071.992" class="st8" width="120" height="120"/>
		<rect x="1250" y="1071.992" class="st8" width="120" height="120"/>
		<rect x="1375" y="1071.992" class="st8" width="120" height="120"/>
		<rect x="1500" y="1071.992" class="st8" width="120" height="120"/>
		<rect x="1625" y="1071.992" class="st8" width="120" height="120"/>
		<rect x="1750" y="1071.992" class="st8" width="120" height="120"/>
		<rect x="1875" y="1071.992" class="st8" width="120" height="120"/>
		<rect x="2000" y="1071.992" class="st8" width="120" height="120"/>
	</g>
</g>
</svg>
